G04 ================== begin FILE IDENTIFICATION RECORD ==================*
G04 Layout Name:  C:/tempPCBDir/9c0d5618749ef6f59795ca09fdc2e18d/HQBrdTmp.brd*
G04 Film Name:    FABPTH*
G04 File Format:  Gerber RS274X*
G04 File Origin:  Cadence Allegro -unreleased*
G04 Origin Date:  Tue Oct  5 09:21:08 2021*
G04 *
G04 Layer:  BOARD GEOMETRY/OUTLINE*
G04 Layer:  BOARD GEOMETRY/CUTOUT*
G04 Layer:  BOARD GEOMETRY/DESIGN_OUTLINE*
G04 Layer:  BOARD GEOMETRY/DIMENSION*
G04 Layer:  DRAWING FORMAT/OUTLINE*
G04 Layer:  DRAWING FORMAT/REVISION_BLOCK*
G04 Layer:  DRAWING FORMAT/TITLE_BLOCK*
G04 Layer:  MANUFACTURING/NCLEGEND-1-2*
G04 *
G04 Offset:    (0.00 0.00)*
G04 Mirror:    No*
G04 Mode:      Positive*
G04 Rotation:  0*
G04 FullContactRelief:  No*
G04 UndefLineWidth:     0.11*
G04 ================== end FILE IDENTIFICATION RECORD ====================*
%FSLAX25Y25*MOIN*%
%IR0*IPPOS*OFA0.00000B0.00000*MIA0B0*SFA1.00000B1.00000*%
%AMMACRO10*
1,1,.00011,.006,0.0*
20,1,.00011,.006,0.0,-.006,0.0,0.0*
1,1,.00011,-.006,0.0*
1,1,.00011,0.0,.006*
20,1,.00011,0.0,.006,0.0,-.006,0.0*
1,1,.00011,0.0,-.006*
1,1,.00011,.0005,0.0*
20,1,.00011,.0005,0.0,.003,.006,0.0*
1,1,.00011,.003,.006*
20,1,.00011,.003,.006,.0055,0.0,0.0*
1,1,.00011,.0055,0.0*
1,1,.00011,.0046,.0021*
20,1,.00011,.0046,.0021,.0014,.0021,0.0*
1,1,.00011,.0014,.0021*
%
%ADD10MACRO10*%
%AMMACRO12*
1,1,.00011,.0155,.0155*
20,1,.00011,.0155,.0155,.0155,-.0155,0.0*
1,1,.00011,.0155,-.0155*
20,1,.00011,.0155,-.0155,-.0155,-.0155,0.0*
1,1,.00011,-.0155,-.0155*
20,1,.00011,-.0155,-.0155,-.0155,.0155,0.0*
1,1,.00011,-.0155,.0155*
20,1,.00011,-.0155,.0155,.0155,.0155,0.0*
1,1,.00011,.0155,.0155*
1,1,.00011,.00568,.00646*
20,1,.00011,.00568,.00646,.00413,.00723,0.0*
1,1,.00011,.00413,.00723*
20,1,.00011,.00413,.00723,.00233,.00775,0.0*
1,1,.00011,.00233,.00775*
20,1,.00011,.00233,.00775,.00026,.00775,0.0*
1,1,.00011,.00026,.00775*
20,1,.00011,.00026,.00775,-.00207,.00697,0.0*
1,1,.00011,-.00207,.00697*
20,1,.00011,-.00207,.00697,-.00387,.00568,0.0*
1,1,.00011,-.00387,.00568*
20,1,.00011,-.00387,.00568,-.00517,.00413,0.0*
1,1,.00011,-.00517,.00413*
20,1,.00011,-.00517,.00413,-.0062,.00155,0.0*
1,1,.00011,-.0062,.00155*
20,1,.00011,-.0062,.00155,-.00646,-.00078,0.0*
1,1,.00011,-.00646,-.00078*
20,1,.00011,-.00646,-.00078,-.00594,-.0031,0.0*
1,1,.00011,-.00594,-.0031*
20,1,.00011,-.00594,-.0031,-.00517,-.00465,0.0*
1,1,.00011,-.00517,-.00465*
20,1,.00011,-.00517,-.00465,-.00362,-.0062,0.0*
1,1,.00011,-.00362,-.0062*
20,1,.00011,-.00362,-.0062,-.00181,-.00723,0.0*
1,1,.00011,-.00181,-.00723*
20,1,.00011,-.00181,-.00723,0.0,-.00775,0.0*
1,1,.00011,0.0,-.00775*
20,1,.00011,0.0,-.00775,.00181,-.00775,0.0*
1,1,.00011,.00181,-.00775*
20,1,.00011,.00181,-.00775,.00362,-.00723,0.0*
1,1,.00011,.00362,-.00723*
20,1,.00011,.00362,-.00723,.00517,-.00646,0.0*
1,1,.00011,.00517,-.00646*
20,1,.00011,.00517,-.00646,.00646,-.00543,0.0*
1,1,.00011,.00646,-.00543*
%
%ADD12MACRO12*%
%AMMACRO13*
1,1,.00011,-.0155,-.016*
20,1,.00011,-.0155,-.016,-.0155,.016,0.0*
1,1,.00011,-.0155,.016*
20,1,.00011,-.0155,.016,-.015265,.018692,0.0*
1,1,.00011,-.015265,.018692*
20,1,.00011,-.015265,.018692,-.014565,.021301,0.0*
1,1,.00011,-.014565,.021301*
20,1,.00011,-.014565,.021301,-.013423,.02375,0.0*
1,1,.00011,-.013423,.02375*
20,1,.00011,-.013423,.02375,-.011874,.025963,0.0*
1,1,.00011,-.011874,.025963*
20,1,.00011,-.011874,.025963,-.009963,.027874,0.0*
1,1,.00011,-.009963,.027874*
20,1,.00011,-.009963,.027874,-.00775,.029423,0.0*
1,1,.00011,-.00775,.029423*
20,1,.00011,-.00775,.029423,-.005301,.030565,0.0*
1,1,.00011,-.005301,.030565*
20,1,.00011,-.005301,.030565,-.002692,.031265,0.0*
1,1,.00011,-.002692,.031265*
20,1,.00011,-.002692,.031265,0.0,.0315,0.0*
1,1,.00011,0.0,.0315*
20,1,.00011,0.0,.0315,.002692,.031265,0.0*
1,1,.00011,.002692,.031265*
20,1,.00011,.002692,.031265,.005301,.030565,0.0*
1,1,.00011,.005301,.030565*
20,1,.00011,.005301,.030565,.00775,.029423,0.0*
1,1,.00011,.00775,.029423*
20,1,.00011,.00775,.029423,.009963,.027874,0.0*
1,1,.00011,.009963,.027874*
20,1,.00011,.009963,.027874,.011874,.025963,0.0*
1,1,.00011,.011874,.025963*
20,1,.00011,.011874,.025963,.013423,.02375,0.0*
1,1,.00011,.013423,.02375*
20,1,.00011,.013423,.02375,.014565,.021301,0.0*
1,1,.00011,.014565,.021301*
20,1,.00011,.014565,.021301,.015265,.018692,0.0*
1,1,.00011,.015265,.018692*
20,1,.00011,.015265,.018692,.0155,.016,0.0*
1,1,.00011,.0155,.016*
20,1,.00011,.0155,.016,.0155,-.016,0.0*
1,1,.00011,.0155,-.016*
20,1,.00011,.0155,-.016,.015265,-.018692,0.0*
1,1,.00011,.015265,-.018692*
20,1,.00011,.015265,-.018692,.014565,-.021301,0.0*
1,1,.00011,.014565,-.021301*
20,1,.00011,.014565,-.021301,.013423,-.02375,0.0*
1,1,.00011,.013423,-.02375*
20,1,.00011,.013423,-.02375,.011874,-.025963,0.0*
1,1,.00011,.011874,-.025963*
20,1,.00011,.011874,-.025963,.009963,-.027874,0.0*
1,1,.00011,.009963,-.027874*
20,1,.00011,.009963,-.027874,.00775,-.029423,0.0*
1,1,.00011,.00775,-.029423*
20,1,.00011,.00775,-.029423,.005301,-.030565,0.0*
1,1,.00011,.005301,-.030565*
20,1,.00011,.005301,-.030565,.002692,-.031265,0.0*
1,1,.00011,.002692,-.031265*
20,1,.00011,.002692,-.031265,0.0,-.0315,0.0*
1,1,.00011,0.0,-.0315*
20,1,.00011,0.0,-.0315,-.002692,-.031265,0.0*
1,1,.00011,-.002692,-.031265*
20,1,.00011,-.002692,-.031265,-.005301,-.030565,0.0*
1,1,.00011,-.005301,-.030565*
20,1,.00011,-.005301,-.030565,-.00775,-.029423,0.0*
1,1,.00011,-.00775,-.029423*
20,1,.00011,-.00775,-.029423,-.009963,-.027874,0.0*
1,1,.00011,-.009963,-.027874*
20,1,.00011,-.009963,-.027874,-.011874,-.025963,0.0*
1,1,.00011,-.011874,-.025963*
20,1,.00011,-.011874,-.025963,-.013423,-.02375,0.0*
1,1,.00011,-.013423,-.02375*
20,1,.00011,-.013423,-.02375,-.014565,-.021301,0.0*
1,1,.00011,-.014565,-.021301*
20,1,.00011,-.014565,-.021301,-.015265,-.018692,0.0*
1,1,.00011,-.015265,-.018692*
20,1,.00011,-.015265,-.018692,-.0155,-.016,0.0*
1,1,.00011,-.0155,-.016*
1,1,.00011,-.00568,-.00775*
20,1,.00011,-.00568,-.00775,-.00568,.00775,0.0*
1,1,.00011,-.00568,.00775*
20,1,.00011,-.00568,.00775,-.00052,.00775,0.0*
1,1,.00011,-.00052,.00775*
20,1,.00011,-.00052,.00775,.00155,.00697,0.0*
1,1,.00011,.00155,.00697*
20,1,.00011,.00155,.00697,.0031,.00594,0.0*
1,1,.00011,.0031,.00594*
20,1,.00011,.0031,.00594,.00439,.00439,0.0*
1,1,.00011,.00439,.00439*
20,1,.00011,.00439,.00439,.00543,.00258,0.0*
1,1,.00011,.00543,.00258*
20,1,.00011,.00543,.00258,.00568,0.0,0.0*
1,1,.00011,.00568,0.0*
20,1,.00011,.00568,0.0,.00543,-.00258,0.0*
1,1,.00011,.00543,-.00258*
20,1,.00011,.00543,-.00258,.00439,-.00439,0.0*
1,1,.00011,.00439,-.00439*
20,1,.00011,.00439,-.00439,.0031,-.00594,0.0*
1,1,.00011,.0031,-.00594*
20,1,.00011,.0031,-.00594,.00155,-.00698,0.0*
1,1,.00011,.00155,-.00698*
20,1,.00011,.00155,-.00698,-.00052,-.00775,0.0*
1,1,.00011,-.00052,-.00775*
20,1,.00011,-.00052,-.00775,-.00568,-.00775,0.0*
1,1,.00011,-.00568,-.00775*
%
%ADD13MACRO13*%
%AMMACRO11*
1,1,.00011,.012,0.0*
20,1,.00011,.012,0.0,.006,.010392,0.0*
1,1,.00011,.006,.010392*
20,1,.00011,.006,.010392,-.006,.010392,0.0*
1,1,.00011,-.006,.010392*
20,1,.00011,-.006,.010392,-.012,0.0,0.0*
1,1,.00011,-.012,0.0*
20,1,.00011,-.012,0.0,-.006,-.010392,0.0*
1,1,.00011,-.006,-.010392*
20,1,.00011,-.006,-.010392,.006,-.010392,0.0*
1,1,.00011,.006,-.010392*
20,1,.00011,.006,-.010392,.012,0.0,0.0*
1,1,.00011,.012,0.0*
1,1,.00011,.0016,.0004*
20,1,.00011,.0016,.0004,.0024,.001,0.0*
1,1,.00011,.0024,.001*
20,1,.00011,.0024,.001,.003,.002,0.0*
1,1,.00011,.003,.002*
20,1,.00011,.003,.002,.0034,.0034,0.0*
1,1,.00011,.0034,.0034*
20,1,.00011,.0034,.0034,.003,.0046,0.0*
1,1,.00011,.003,.0046*
20,1,.00011,.003,.0046,.0022,.0054,0.0*
1,1,.00011,.0022,.0054*
20,1,.00011,.0022,.0054,.0008,.006,0.0*
1,1,.00011,.0008,.006*
20,1,.00011,.0008,.006,-.0046,.006,0.0*
1,1,.00011,-.0046,.006*
20,1,.00011,-.0046,.006,-.0046,-.006,0.0*
1,1,.00011,-.0046,-.006*
20,1,.00011,-.0046,-.006,.002,-.006,0.0*
1,1,.00011,.002,-.006*
20,1,.00011,.002,-.006,.0034,-.0052,0.0*
1,1,.00011,.0034,-.0052*
20,1,.00011,.0034,-.0052,.0042,-.004,0.0*
1,1,.00011,.0042,-.004*
20,1,.00011,.0042,-.004,.0046,-.0026,0.0*
1,1,.00011,.0046,-.0026*
20,1,.00011,.0046,-.0026,.0042,-.0012,0.0*
1,1,.00011,.0042,-.0012*
20,1,.00011,.0042,-.0012,.003,0.0,0.0*
1,1,.00011,.003,0.0*
20,1,.00011,.003,0.0,.0016,.0004,0.0*
1,1,.00011,.0016,.0004*
20,1,.00011,.0016,.0004,-.0046,.0004,0.0*
1,1,.00011,-.0046,.0004*
%
%ADD11MACRO11*%
%ADD14C,.004*%
%ADD15C,.00011*%
%ADD16C,.006*%
G75*
%LPD*%
G75*
G54D10*
X96000Y84500D03*
Y89000D03*
X94200Y98300D03*
X84500Y125500D03*
X95000Y120000D03*
X92500Y125000D03*
Y197500D03*
X85500Y197000D03*
X92500Y202500D03*
Y207500D03*
Y212500D03*
Y217500D03*
X85500Y202000D03*
Y207000D03*
Y212000D03*
Y217000D03*
X86500Y233000D03*
X93500D03*
X99500Y87500D03*
X103000Y84000D03*
X112000Y104500D03*
X108500Y108000D03*
X114500Y96100D03*
X109300Y98300D03*
X101500Y112000D03*
X102800Y114500D03*
X100000D03*
X110000Y120500D03*
X101500Y120000D03*
X107500Y125000D03*
X112500D03*
X97500D03*
X102500D03*
X102000Y199500D03*
Y204500D03*
X115300Y214500D03*
X102000Y209500D03*
X115500D03*
X108000Y229000D03*
X115000D03*
X111000Y225000D03*
X109500Y233500D03*
X114500D03*
X104500D03*
X99500D03*
X130000Y92600D03*
X125000D03*
X135000Y92500D03*
X132500Y96100D03*
X122500D03*
X132500Y102600D03*
X122500D03*
X117000Y113000D03*
X118000Y135500D03*
X133500D03*
X118000Y147500D03*
X136000D03*
X118000Y177500D03*
Y167500D03*
Y157500D03*
X136000Y167500D03*
Y177500D03*
Y157500D03*
Y210000D03*
X127800Y200300D03*
X131000Y210000D03*
X118000Y225000D03*
X119500Y233500D03*
X134500D03*
X124800Y221300D03*
Y230000D03*
X129800Y225500D03*
X138500Y93500D03*
X146000D03*
X156500Y96000D03*
X154000Y104000D03*
X151500Y99000D03*
X147500Y103000D03*
X144500Y98500D03*
X140500Y102600D03*
X147500Y119000D03*
X143500D03*
X155500Y146000D03*
Y156000D03*
X150000Y142000D03*
Y152000D03*
X143000Y147500D03*
X155500Y176000D03*
Y166000D03*
X150000Y172000D03*
Y162000D03*
X143000Y167500D03*
Y177500D03*
Y157500D03*
X141500Y183100D03*
X149400D03*
X137500Y183000D03*
X150000Y217000D03*
X157000D03*
X149000Y210000D03*
X155000Y227500D03*
X151500Y222500D03*
X139500Y233500D03*
X144500D03*
X149500D03*
X154500D03*
X172500Y89500D03*
Y92500D03*
X176000Y111500D03*
X164900Y96100D03*
X161000D03*
Y106500D03*
Y103700D03*
X158500Y120500D03*
X177500Y126000D03*
X157300Y135000D03*
X165100D03*
X169500Y155500D03*
X162500Y151500D03*
X169500Y175500D03*
Y165500D03*
X162500Y171500D03*
Y161500D03*
X173000Y197500D03*
X157300Y183100D03*
X165100D03*
X173500Y209500D03*
X165000Y210000D03*
X157500D03*
X162000Y227500D03*
X171500Y233500D03*
X164500D03*
X158500Y222500D03*
X171300Y230000D03*
Y221000D03*
X176300Y225500D03*
X196500Y88500D03*
X191500D03*
Y95500D03*
X186000Y89500D03*
X185000Y112500D03*
X190000D03*
X195000D03*
X194500Y130500D03*
X189500D03*
X184500D03*
X195000Y117500D03*
X190000D03*
X185000D03*
X187500Y149500D03*
X196000Y154000D03*
X193500Y164000D03*
X188000Y159000D03*
Y164000D03*
Y169000D03*
Y174000D03*
X197000Y197000D03*
X182500D03*
X189500D03*
X187000Y186500D03*
X196000D03*
X191500D03*
X182500D03*
X188500Y210000D03*
X195500D03*
X192000Y203000D03*
X178000Y202500D03*
X185000D03*
X180500Y209500D03*
X198000Y234000D03*
X193000D03*
X188000D03*
X215500Y94000D03*
X211500Y88500D03*
X206500D03*
X201500D03*
X205000Y112500D03*
X200000D03*
X209500Y125500D03*
X199500Y130500D03*
X200000Y117500D03*
X215500Y121500D03*
Y131500D03*
X209500Y131000D03*
X212500Y134000D03*
X215500Y141500D03*
Y151500D03*
X214000Y167500D03*
Y172500D03*
Y177500D03*
X204000Y197000D03*
X208500Y181500D03*
X199000Y203000D03*
X203000Y234000D03*
X208000D03*
X236500Y94500D03*
Y89500D03*
X221000Y94000D03*
X223500Y88500D03*
X237500Y108500D03*
Y113500D03*
X222000Y107500D03*
X218500D03*
X225000D03*
X218500Y126500D03*
Y136500D03*
X235000Y125000D03*
Y135000D03*
X218500Y146500D03*
Y156500D03*
X235000Y145000D03*
Y155000D03*
X219000Y172500D03*
Y167500D03*
X233500Y188500D03*
X235700Y196300D03*
X233500Y200500D03*
X228500Y212500D03*
X221500D03*
X227500Y232500D03*
X220500D03*
X230500Y218500D03*
X223500D03*
X237000Y227000D03*
X232000D03*
X237500Y233500D03*
X241500Y89500D03*
Y94500D03*
X256500Y93000D03*
X253500Y91000D03*
Y94500D03*
X257500Y108500D03*
X242500D03*
X247500D03*
X252500D03*
X257500Y113500D03*
X242500D03*
X247500D03*
X252500D03*
X245000Y135000D03*
X250000D03*
X240000D03*
X255000D03*
X250000Y125000D03*
X245000D03*
X240000D03*
X245000Y145000D03*
X250000D03*
X240000D03*
Y155000D03*
X245000D03*
X250000D03*
X251500Y174500D03*
X240500Y178500D03*
X247500D03*
X240500Y188500D03*
X241000Y184000D03*
X248000D03*
X242300Y196300D03*
X239000Y193000D03*
X254000Y191500D03*
X246500D03*
X240500Y200500D03*
X242000Y227000D03*
X247000D03*
X252000D03*
X257500Y233500D03*
X242500D03*
X247500D03*
X252500D03*
X272500Y83700D03*
X275000Y97500D03*
X261700Y121500D03*
Y126500D03*
X263000Y132500D03*
X276500Y130500D03*
X269500Y116500D03*
X261700Y138500D03*
X263000Y154500D03*
Y149500D03*
Y144500D03*
X275500Y157000D03*
X276300Y138500D03*
X262800Y175500D03*
X275500Y159800D03*
X263000Y190500D03*
Y185500D03*
X262800Y180500D03*
X278500Y195000D03*
X262500Y229500D03*
X269500D03*
X295000Y90500D03*
Y93500D03*
X288500Y113500D03*
X300000Y111000D03*
Y116000D03*
Y106000D03*
Y101000D03*
X286300Y112300D03*
X284000Y97500D03*
X283500Y114000D03*
X288500Y118500D03*
Y123500D03*
Y128500D03*
Y133500D03*
X300000Y121000D03*
X297500Y151000D03*
Y156000D03*
Y146000D03*
X292000Y151100D03*
X281000Y152000D03*
X297500Y161000D03*
Y166000D03*
X282500Y195000D03*
X298000Y216500D03*
Y211500D03*
X288000Y216500D03*
X281500Y209500D03*
X286500D03*
Y206000D03*
X298000Y226500D03*
Y231500D03*
Y221500D03*
X288000Y230500D03*
X288600Y224500D03*
X305000Y90500D03*
Y95500D03*
Y85500D03*
Y100500D03*
Y105500D03*
Y115000D03*
Y120000D03*
Y125000D03*
Y130000D03*
Y135000D03*
X303000Y156000D03*
Y171000D03*
Y176000D03*
Y161000D03*
Y166000D03*
X305000Y197500D03*
Y182500D03*
Y187500D03*
Y192500D03*
Y207500D03*
Y212500D03*
Y217500D03*
Y202500D03*
Y222500D03*
X383600Y179900D03*
G54D11*
X96200Y95500D03*
Y111300D03*
X383600Y153900D03*
G54D12*
X189600Y224500D03*
X197500D03*
X205400D03*
X383600Y166900D03*
G54D13*
X181400Y224500D03*
X213600D03*
X383600Y140900D03*
G54D14*
G01X46100Y154900D02*
X39600D01*
X44258Y151200D01*
Y156200D01*
G01X39600Y160200D02*
X39817Y159400D01*
X40358Y158800D01*
X41008Y158400D01*
X41875Y158100D01*
X42850Y158000D01*
X43825Y158100D01*
X44692Y158400D01*
X45342Y158800D01*
X45883Y159400D01*
X46100Y160200D01*
X45883Y161000D01*
X45342Y161600D01*
X44692Y162000D01*
X43825Y162300D01*
X42850Y162400D01*
X41875Y162300D01*
X41008Y162000D01*
X40358Y161600D01*
X39817Y161000D01*
X39600Y160200D01*
G01X46100Y164100D02*
X39600D01*
X45017Y166700D01*
X39600Y169300D01*
X46100D01*
G01Y170600D02*
X39600D01*
X45017Y173200D01*
X39600Y175800D01*
X46100D01*
G01X177500Y259375D02*
X178100Y258833D01*
X178800Y258508D01*
X179700Y258400D01*
X180600Y258617D01*
X181300Y259050D01*
X181800Y259808D01*
X181900Y260675D01*
X181700Y261542D01*
X181200Y262083D01*
X180500Y262517D01*
X179800Y262625D01*
X179100Y262517D01*
X178200Y262083D01*
X178500Y264900D01*
X181200D01*
G01X186200Y258400D02*
X186900Y258508D01*
X187700Y258833D01*
X188200Y259375D01*
X188400Y260133D01*
X188200Y260892D01*
X187600Y261542D01*
X186700Y261867D01*
X185700D01*
X185100Y262083D01*
X184600Y262625D01*
X184400Y263383D01*
X184700Y264142D01*
X185400Y264683D01*
X186200Y264900D01*
X187000Y264683D01*
X187700Y264142D01*
X188000Y263383D01*
X187800Y262625D01*
X187300Y262083D01*
X186700Y261867D01*
X185700D01*
X184800Y261542D01*
X184200Y260892D01*
X184000Y260133D01*
X184200Y259375D01*
X184700Y258833D01*
X185500Y258508D01*
X186200Y258400D01*
G01X192700Y258183D02*
X192500Y258292D01*
Y258508D01*
X192700Y258617D01*
X192900Y258508D01*
Y258292D01*
X192700Y258183D01*
G01X197300Y261108D02*
X198000Y261867D01*
X198600Y262300D01*
X199400Y262517D01*
X200100Y262300D01*
X200600Y261867D01*
X201000Y261217D01*
X201100Y260458D01*
X201000Y259808D01*
X200600Y259158D01*
X200000Y258617D01*
X199300Y258400D01*
X198500Y258617D01*
X197800Y259266D01*
X197400Y260242D01*
X197300Y261325D01*
X197500Y262733D01*
X197800Y263492D01*
X198300Y264250D01*
X199000Y264792D01*
X199700Y264900D01*
X200400Y264683D01*
X200900Y264142D01*
G01X203100Y258400D02*
Y264900D01*
X205700Y259483D01*
X208300Y264900D01*
Y258400D01*
G01X209600D02*
Y264900D01*
X212200Y259483D01*
X214800Y264900D01*
Y258400D01*
G01X365450Y189600D02*
Y196100D01*
X369250D01*
G01X367850Y192958D02*
X365450D01*
G01X372650Y196100D02*
X375050D01*
G01X373850D02*
Y189600D01*
G01X372650D02*
X375050D01*
G01X380950Y192850D02*
X382950D01*
Y190900D01*
X382350Y190250D01*
X381650Y189817D01*
X380650Y189600D01*
X379650Y189817D01*
X378950Y190250D01*
X378350Y190900D01*
X377950Y191658D01*
X377750Y192525D01*
Y193283D01*
X377950Y193933D01*
X378350Y194692D01*
X378950Y195342D01*
X379550Y195775D01*
X380350Y196100D01*
X381050D01*
X381850Y195883D01*
X382450Y195450D01*
G01X384650Y196100D02*
Y191442D01*
X385050Y190466D01*
X385850Y189817D01*
X386850Y189600D01*
X387850Y189817D01*
X388650Y190466D01*
X389050Y191442D01*
Y196100D01*
G01X391350Y189600D02*
Y196100D01*
X393850D01*
X394650Y195775D01*
X395150Y195342D01*
X395350Y194475D01*
X395150Y193608D01*
X394550Y193067D01*
X393850Y192742D01*
X391350D01*
G01X393850D02*
X395350Y189600D01*
G01X401850D02*
X397850D01*
Y196100D01*
X401850D01*
G01X400250Y192958D02*
X397850D01*
G01X417600Y202600D02*
X420100Y209100D01*
X422600Y202600D01*
G01X421700Y204875D02*
X418500D01*
G01X424600Y209100D02*
Y202600D01*
X428600D01*
G01X431100Y209100D02*
Y202600D01*
X435100D01*
G01X443900Y209100D02*
Y204442D01*
X444300Y203466D01*
X445100Y202817D01*
X446100Y202600D01*
X447100Y202817D01*
X447900Y203466D01*
X448300Y204442D01*
Y209100D01*
G01X450300Y202600D02*
Y209100D01*
X454900Y202600D01*
Y209100D01*
G01X457900D02*
X460300D01*
G01X459100D02*
Y202600D01*
G01X457900D02*
X460300D01*
G01X465600Y209100D02*
Y202600D01*
G01X463300Y209100D02*
X467900D01*
G01X470000Y203466D02*
X470800Y202925D01*
X471700Y202600D01*
X472500D01*
X473300Y202925D01*
X473900Y203466D01*
X474200Y204225D01*
X474000Y204983D01*
X473500Y205633D01*
X472600Y206067D01*
X471400Y206283D01*
X470700Y206717D01*
X470400Y207475D01*
X470600Y208233D01*
X471100Y208775D01*
X471800Y209100D01*
X472500D01*
X473200Y208883D01*
X473800Y208342D01*
G01X482600Y202600D02*
X485100Y209100D01*
X487600Y202600D01*
G01X486700Y204875D02*
X483500D01*
G01X489600Y202600D02*
Y209100D01*
X492100D01*
X492900Y208775D01*
X493400Y208342D01*
X493600Y207475D01*
X493400Y206608D01*
X492800Y206067D01*
X492100Y205742D01*
X489600D01*
G01X492100D02*
X493600Y202600D01*
G01X500100D02*
X496100D01*
Y209100D01*
X500100D01*
G01X498500Y205958D02*
X496100D01*
G01X509900Y209100D02*
X512300D01*
G01X511100D02*
Y202600D01*
G01X509900D02*
X512300D01*
G01X515300D02*
Y209100D01*
X519900Y202600D01*
Y209100D01*
G01X528000Y202600D02*
Y209100D01*
X530600Y203683D01*
X533200Y209100D01*
Y202600D01*
G01X535900Y209100D02*
X538300D01*
G01X537100D02*
Y202600D01*
G01X535900D02*
X538300D01*
G01X541600Y209100D02*
Y202600D01*
X545600D01*
G01X548000Y203466D02*
X548800Y202925D01*
X549700Y202600D01*
X550500D01*
X551300Y202925D01*
X551900Y203466D01*
X552200Y204225D01*
X552000Y204983D01*
X551500Y205633D01*
X550600Y206067D01*
X549400Y206283D01*
X548700Y206717D01*
X548400Y207475D01*
X548600Y208233D01*
X549100Y208775D01*
X549800Y209100D01*
X550500D01*
X551200Y208883D01*
X551800Y208342D01*
G01X401650Y227600D02*
Y234100D01*
X403650D01*
X404450Y233775D01*
X405050Y233342D01*
X405550Y232692D01*
X405950Y231933D01*
X406050Y230850D01*
X405950Y229767D01*
X405550Y229008D01*
X405050Y228358D01*
X404450Y227925D01*
X403650Y227600D01*
X401650D01*
G01X408350D02*
Y234100D01*
X410850D01*
X411650Y233775D01*
X412150Y233342D01*
X412350Y232475D01*
X412150Y231608D01*
X411550Y231067D01*
X410850Y230742D01*
X408350D01*
G01X410850D02*
X412350Y227600D01*
G01X415650Y234100D02*
X418050D01*
G01X416850D02*
Y227600D01*
G01X415650D02*
X418050D01*
G01X421350Y234100D02*
Y227600D01*
X425350D01*
G01X427850Y234100D02*
Y227600D01*
X431850D01*
G01X445050Y233558D02*
X444450Y233883D01*
X443750Y234100D01*
X442950D01*
X442050Y233775D01*
X441350Y233233D01*
X440850Y232583D01*
X440450Y231500D01*
X440350Y230525D01*
X440550Y229550D01*
X440850Y228900D01*
X441450Y228250D01*
X442150Y227817D01*
X442850Y227600D01*
X443550D01*
X444250Y227817D01*
X444850Y228142D01*
X445350Y228575D01*
G01X447250Y227600D02*
Y234100D01*
G01X451450D02*
Y227600D01*
G01Y230850D02*
X447250D01*
G01X453350Y227600D02*
X455850Y234100D01*
X458350Y227600D01*
G01X457450Y229875D02*
X454250D01*
G01X460350Y227600D02*
Y234100D01*
X462850D01*
X463650Y233775D01*
X464150Y233342D01*
X464350Y232475D01*
X464150Y231608D01*
X463550Y231067D01*
X462850Y230742D01*
X460350D01*
G01X462850D02*
X464350Y227600D01*
G01X468850Y234100D02*
Y227600D01*
G01X466550Y234100D02*
X471150D01*
G01X475350Y227383D02*
X475150Y227492D01*
Y227708D01*
X475350Y227817D01*
X475550Y227708D01*
Y227492D01*
X475350Y227383D01*
G01Y230308D02*
X475150Y230417D01*
Y230633D01*
X475350Y230742D01*
X475550Y230633D01*
Y230417D01*
X475350Y230308D01*
G01X488350Y234100D02*
Y227600D01*
G01X486050Y234100D02*
X490650D01*
G01X494850Y227600D02*
X494050Y227708D01*
X493350Y228142D01*
X492750Y228792D01*
X492350Y229550D01*
X492150Y230417D01*
Y231283D01*
X492350Y232150D01*
X492750Y232908D01*
X493350Y233558D01*
X494050Y233992D01*
X494850Y234100D01*
X495650Y233992D01*
X496350Y233558D01*
X496950Y232908D01*
X497350Y232150D01*
X497550Y231283D01*
Y230417D01*
X497350Y229550D01*
X496950Y228792D01*
X496350Y228142D01*
X495650Y227708D01*
X494850Y227600D01*
G01X499350D02*
Y234100D01*
X501750D01*
X502550Y233775D01*
X503150Y233017D01*
X503350Y232150D01*
X503150Y231283D01*
X502650Y230633D01*
X501750Y230308D01*
X499350D01*
G01X514350Y234100D02*
Y227600D01*
G01X512950Y231933D02*
X515750D01*
G01X520850Y227600D02*
X520250Y227708D01*
X519650Y228142D01*
X519250Y228900D01*
X519050Y229767D01*
X519250Y230633D01*
X519650Y231392D01*
X520250Y231825D01*
X520850Y231933D01*
X521450Y231825D01*
X522050Y231392D01*
X522450Y230633D01*
X522550Y229767D01*
X522450Y228900D01*
X522050Y228142D01*
X521450Y227708D01*
X520850Y227600D01*
G01X534650Y231067D02*
X535050Y231392D01*
X535350Y231933D01*
X535550Y232692D01*
X535350Y233342D01*
X534950Y233775D01*
X534250Y234100D01*
X531550D01*
Y227600D01*
X534850D01*
X535550Y228033D01*
X535950Y228683D01*
X536150Y229442D01*
X535950Y230200D01*
X535350Y230850D01*
X534650Y231067D01*
X531550D01*
G01X540350Y227600D02*
X539550Y227708D01*
X538850Y228142D01*
X538250Y228792D01*
X537850Y229550D01*
X537650Y230417D01*
Y231283D01*
X537850Y232150D01*
X538250Y232908D01*
X538850Y233558D01*
X539550Y233992D01*
X540350Y234100D01*
X541150Y233992D01*
X541850Y233558D01*
X542450Y232908D01*
X542850Y232150D01*
X543050Y231283D01*
Y230417D01*
X542850Y229550D01*
X542450Y228792D01*
X541850Y228142D01*
X541150Y227708D01*
X540350Y227600D01*
G01X546850Y234100D02*
Y227600D01*
G01X544550Y234100D02*
X549150D01*
G01X553350D02*
Y227600D01*
G01X551050Y234100D02*
X555650D01*
G01X559850Y227600D02*
X559050Y227708D01*
X558350Y228142D01*
X557750Y228792D01*
X557350Y229550D01*
X557150Y230417D01*
Y231283D01*
X557350Y232150D01*
X557750Y232908D01*
X558350Y233558D01*
X559050Y233992D01*
X559850Y234100D01*
X560650Y233992D01*
X561350Y233558D01*
X561950Y232908D01*
X562350Y232150D01*
X562550Y231283D01*
Y230417D01*
X562350Y229550D01*
X561950Y228792D01*
X561350Y228142D01*
X560650Y227708D01*
X559850Y227600D01*
G01X563750D02*
Y234100D01*
X566350Y228683D01*
X568950Y234100D01*
Y227600D01*
G01X427700Y140308D02*
X428400Y141067D01*
X429000Y141500D01*
X429800Y141717D01*
X430500Y141500D01*
X431000Y141067D01*
X431400Y140417D01*
X431500Y139658D01*
X431400Y139008D01*
X431000Y138358D01*
X430400Y137817D01*
X429700Y137600D01*
X428900Y137817D01*
X428200Y138466D01*
X427800Y139442D01*
X427700Y140525D01*
X427900Y141933D01*
X428200Y142692D01*
X428700Y143450D01*
X429400Y143992D01*
X430100Y144100D01*
X430800Y143883D01*
X431300Y143342D01*
G01X433900Y138900D02*
X434500Y138142D01*
X435300Y137708D01*
X436200Y137600D01*
X437000Y137708D01*
X437800Y138250D01*
X438300Y138900D01*
X438400Y139550D01*
X438200Y140308D01*
X437500Y140850D01*
X436800Y141067D01*
X435900D01*
G01X436800D02*
X437400Y141392D01*
X437900Y141933D01*
X438100Y142583D01*
X437900Y143233D01*
X437400Y143775D01*
X436500Y144100D01*
X435600Y143992D01*
X434700Y143558D01*
G01X442600Y137383D02*
X442400Y137492D01*
Y137708D01*
X442600Y137817D01*
X442800Y137708D01*
Y137492D01*
X442600Y137383D01*
G01X449100Y144100D02*
X448300Y143883D01*
X447700Y143342D01*
X447300Y142692D01*
X447000Y141825D01*
X446900Y140850D01*
X447000Y139875D01*
X447300Y139008D01*
X447700Y138358D01*
X448300Y137817D01*
X449100Y137600D01*
X449900Y137817D01*
X450500Y138358D01*
X450900Y139008D01*
X451200Y139875D01*
X451300Y140850D01*
X451200Y141825D01*
X450900Y142692D01*
X450500Y143342D01*
X449900Y143883D01*
X449100Y144100D01*
G01X454100Y141933D02*
X457100Y137600D01*
G01Y141933D02*
X454100Y137600D01*
G01X459900Y138900D02*
X460500Y138142D01*
X461300Y137708D01*
X462200Y137600D01*
X463000Y137708D01*
X463800Y138250D01*
X464300Y138900D01*
X464400Y139550D01*
X464200Y140308D01*
X463500Y140850D01*
X462800Y141067D01*
X461900D01*
G01X462800D02*
X463400Y141392D01*
X463900Y141933D01*
X464100Y142583D01*
X463900Y143233D01*
X463400Y143775D01*
X462500Y144100D01*
X461600Y143992D01*
X460700Y143558D01*
G01X468600Y137600D02*
Y144100D01*
X467400Y142800D01*
G01Y137600D02*
X469800D01*
G01X475100Y137383D02*
X474900Y137492D01*
Y137708D01*
X475100Y137817D01*
X475300Y137708D01*
Y137492D01*
X475100Y137383D01*
G01X481600Y144100D02*
X480800Y143883D01*
X480200Y143342D01*
X479800Y142692D01*
X479500Y141825D01*
X479400Y140850D01*
X479500Y139875D01*
X479800Y139008D01*
X480200Y138358D01*
X480800Y137817D01*
X481600Y137600D01*
X482400Y137817D01*
X483000Y138358D01*
X483400Y139008D01*
X483700Y139875D01*
X483800Y140850D01*
X483700Y141825D01*
X483400Y142692D01*
X483000Y143342D01*
X482400Y143883D01*
X481600Y144100D01*
G01X443950Y156017D02*
X444550Y156667D01*
X445250Y156992D01*
X446050Y157100D01*
X447050Y156883D01*
X447750Y156342D01*
X447950Y155692D01*
X447850Y155042D01*
X447450Y154500D01*
X445450Y153417D01*
X444550Y152658D01*
X443950Y151575D01*
X443750Y150600D01*
X447950D01*
G01X453550D02*
Y157100D01*
X449850Y152442D01*
X454850D01*
G01X458850Y150383D02*
X458650Y150492D01*
Y150708D01*
X458850Y150817D01*
X459050Y150708D01*
Y150492D01*
X458850Y150383D01*
G01X465350Y157100D02*
X464550Y156883D01*
X463950Y156342D01*
X463550Y155692D01*
X463250Y154825D01*
X463150Y153850D01*
X463250Y152875D01*
X463550Y152008D01*
X463950Y151358D01*
X464550Y150817D01*
X465350Y150600D01*
X466150Y150817D01*
X466750Y151358D01*
X467150Y152008D01*
X467450Y152875D01*
X467550Y153850D01*
X467450Y154825D01*
X467150Y155692D01*
X466750Y156342D01*
X466150Y156883D01*
X465350Y157100D01*
G01X445850Y176600D02*
Y183100D01*
X444650Y181800D01*
G01Y176600D02*
X447050D01*
G01X450450Y182017D02*
X451050Y182667D01*
X451750Y182992D01*
X452550Y183100D01*
X453550Y182883D01*
X454250Y182342D01*
X454450Y181692D01*
X454350Y181042D01*
X453950Y180500D01*
X451950Y179417D01*
X451050Y178658D01*
X450450Y177575D01*
X450250Y176600D01*
X454450D01*
G01X458850Y176383D02*
X458650Y176492D01*
Y176708D01*
X458850Y176817D01*
X459050Y176708D01*
Y176492D01*
X458850Y176383D01*
G01X465350Y183100D02*
X464550Y182883D01*
X463950Y182342D01*
X463550Y181692D01*
X463250Y180825D01*
X463150Y179850D01*
X463250Y178875D01*
X463550Y178008D01*
X463950Y177358D01*
X464550Y176817D01*
X465350Y176600D01*
X466150Y176817D01*
X466750Y177358D01*
X467150Y178008D01*
X467450Y178875D01*
X467550Y179850D01*
X467450Y180825D01*
X467150Y181692D01*
X466750Y182342D01*
X466150Y182883D01*
X465350Y183100D01*
G01X443650Y164900D02*
X444250Y164142D01*
X445050Y163708D01*
X445950Y163600D01*
X446750Y163708D01*
X447550Y164250D01*
X448050Y164900D01*
X448150Y165550D01*
X447950Y166308D01*
X447250Y166850D01*
X446550Y167067D01*
X445650D01*
G01X446550D02*
X447150Y167392D01*
X447650Y167933D01*
X447850Y168583D01*
X447650Y169233D01*
X447150Y169775D01*
X446250Y170100D01*
X445350Y169992D01*
X444450Y169558D01*
G01X452350Y163600D02*
Y170100D01*
X451150Y168800D01*
G01Y163600D02*
X453550D01*
G01X458850Y163383D02*
X458650Y163492D01*
Y163708D01*
X458850Y163817D01*
X459050Y163708D01*
Y163492D01*
X458850Y163383D01*
G01X465350Y170100D02*
X464550Y169883D01*
X463950Y169342D01*
X463550Y168692D01*
X463250Y167825D01*
X463150Y166850D01*
X463250Y165875D01*
X463550Y165008D01*
X463950Y164358D01*
X464550Y163817D01*
X465350Y163600D01*
X466150Y163817D01*
X466750Y164358D01*
X467150Y165008D01*
X467450Y165875D01*
X467550Y166850D01*
X467450Y167825D01*
X467150Y168692D01*
X466750Y169342D01*
X466150Y169883D01*
X465350Y170100D01*
G01X443750Y190466D02*
X444550Y189925D01*
X445450Y189600D01*
X446250D01*
X447050Y189925D01*
X447650Y190466D01*
X447950Y191225D01*
X447750Y191983D01*
X447250Y192633D01*
X446350Y193067D01*
X445150Y193283D01*
X444450Y193717D01*
X444150Y194475D01*
X444350Y195233D01*
X444850Y195775D01*
X445550Y196100D01*
X446250D01*
X446950Y195883D01*
X447550Y195342D01*
G01X451150Y196100D02*
X453550D01*
G01X452350D02*
Y189600D01*
G01X451150D02*
X453550D01*
G01X456950Y196100D02*
X460750D01*
X456950Y189600D01*
X460750D01*
G01X467350D02*
X463350D01*
Y196100D01*
X467350D01*
G01X465750Y192958D02*
X463350D01*
G01X505850Y150600D02*
Y157100D01*
X510450Y150600D01*
Y157100D01*
G01X514650Y150600D02*
X513850Y150708D01*
X513150Y151142D01*
X512550Y151792D01*
X512150Y152550D01*
X511950Y153417D01*
Y154283D01*
X512150Y155150D01*
X512550Y155908D01*
X513150Y156558D01*
X513850Y156992D01*
X514650Y157100D01*
X515450Y156992D01*
X516150Y156558D01*
X516750Y155908D01*
X517150Y155150D01*
X517350Y154283D01*
Y153417D01*
X517150Y152550D01*
X516750Y151792D01*
X516150Y151142D01*
X515450Y150708D01*
X514650Y150600D01*
G01X518850D02*
Y157100D01*
X523450Y150600D01*
Y157100D01*
G01X526350Y152767D02*
X528950D01*
G01X532150Y150600D02*
Y157100D01*
X534550D01*
X535350Y156775D01*
X535950Y156017D01*
X536150Y155150D01*
X535950Y154283D01*
X535450Y153633D01*
X534550Y153308D01*
X532150D01*
G01X538650Y157100D02*
Y150600D01*
X542650D01*
G01X544650D02*
X547150Y157100D01*
X549650Y150600D01*
G01X548750Y152875D02*
X545550D01*
G01X553650Y157100D02*
Y150600D01*
G01X551350Y157100D02*
X555950D01*
G01X562150Y150600D02*
X558150D01*
Y157100D01*
X562150D01*
G01X560550Y153958D02*
X558150D01*
G01X564450Y150600D02*
Y157100D01*
X566450D01*
X567250Y156775D01*
X567850Y156342D01*
X568350Y155692D01*
X568750Y154933D01*
X568850Y153850D01*
X568750Y152767D01*
X568350Y152008D01*
X567850Y151358D01*
X567250Y150925D01*
X566450Y150600D01*
X564450D01*
G01X519150Y137600D02*
Y144100D01*
X521550D01*
X522350Y143775D01*
X522950Y143017D01*
X523150Y142150D01*
X522950Y141283D01*
X522450Y140633D01*
X521550Y140308D01*
X519150D01*
G01X525650Y144100D02*
Y137600D01*
X529650D01*
G01X531650D02*
X534150Y144100D01*
X536650Y137600D01*
G01X535750Y139875D02*
X532550D01*
G01X540650Y144100D02*
Y137600D01*
G01X538350Y144100D02*
X542950D01*
G01X549150Y137600D02*
X545150D01*
Y144100D01*
X549150D01*
G01X547550Y140958D02*
X545150D01*
G01X551450Y137600D02*
Y144100D01*
X553450D01*
X554250Y143775D01*
X554850Y143342D01*
X555350Y142692D01*
X555750Y141933D01*
X555850Y140850D01*
X555750Y139767D01*
X555350Y139008D01*
X554850Y138358D01*
X554250Y137925D01*
X553450Y137600D01*
X551450D01*
G01X519150Y176600D02*
Y183100D01*
X521550D01*
X522350Y182775D01*
X522950Y182017D01*
X523150Y181150D01*
X522950Y180283D01*
X522450Y179633D01*
X521550Y179308D01*
X519150D01*
G01X525650Y183100D02*
Y176600D01*
X529650D01*
G01X531650D02*
X534150Y183100D01*
X536650Y176600D01*
G01X535750Y178875D02*
X532550D01*
G01X540650Y183100D02*
Y176600D01*
G01X538350Y183100D02*
X542950D01*
G01X549150Y176600D02*
X545150D01*
Y183100D01*
X549150D01*
G01X547550Y179958D02*
X545150D01*
G01X551450Y176600D02*
Y183100D01*
X553450D01*
X554250Y182775D01*
X554850Y182342D01*
X555350Y181692D01*
X555750Y180933D01*
X555850Y179850D01*
X555750Y178767D01*
X555350Y178008D01*
X554850Y177358D01*
X554250Y176925D01*
X553450Y176600D01*
X551450D01*
G01X519150Y163600D02*
Y170100D01*
X521550D01*
X522350Y169775D01*
X522950Y169017D01*
X523150Y168150D01*
X522950Y167283D01*
X522450Y166633D01*
X521550Y166308D01*
X519150D01*
G01X525650Y170100D02*
Y163600D01*
X529650D01*
G01X531650D02*
X534150Y170100D01*
X536650Y163600D01*
G01X535750Y165875D02*
X532550D01*
G01X540650Y170100D02*
Y163600D01*
G01X538350Y170100D02*
X542950D01*
G01X549150Y163600D02*
X545150D01*
Y170100D01*
X549150D01*
G01X547550Y166958D02*
X545150D01*
G01X551450Y163600D02*
Y170100D01*
X553450D01*
X554250Y169775D01*
X554850Y169342D01*
X555350Y168692D01*
X555750Y167933D01*
X555850Y166850D01*
X555750Y165767D01*
X555350Y165008D01*
X554850Y164358D01*
X554250Y163925D01*
X553450Y163600D01*
X551450D01*
G01X519150Y189600D02*
Y196100D01*
X521550D01*
X522350Y195775D01*
X522950Y195017D01*
X523150Y194150D01*
X522950Y193283D01*
X522450Y192633D01*
X521550Y192308D01*
X519150D01*
G01X525650Y196100D02*
Y189600D01*
X529650D01*
G01X531650D02*
X534150Y196100D01*
X536650Y189600D01*
G01X535750Y191875D02*
X532550D01*
G01X540650Y196100D02*
Y189600D01*
G01X538350Y196100D02*
X542950D01*
G01X549150Y189600D02*
X545150D01*
Y196100D01*
X549150D01*
G01X547550Y192958D02*
X545150D01*
G01X551450Y189600D02*
Y196100D01*
X553450D01*
X554250Y195775D01*
X554850Y195342D01*
X555350Y194692D01*
X555750Y193933D01*
X555850Y192850D01*
X555750Y191767D01*
X555350Y191008D01*
X554850Y190358D01*
X554250Y189925D01*
X553450Y189600D01*
X551450D01*
G01X581100Y177900D02*
X581700Y177142D01*
X582500Y176708D01*
X583400Y176600D01*
X584200Y176708D01*
X585000Y177250D01*
X585500Y177900D01*
X585600Y178550D01*
X585400Y179308D01*
X584700Y179850D01*
X584000Y180067D01*
X583100D01*
G01X584000D02*
X584600Y180392D01*
X585100Y180933D01*
X585300Y181583D01*
X585100Y182233D01*
X584600Y182775D01*
X583700Y183100D01*
X582800Y182992D01*
X581900Y182558D01*
G01X587600Y177575D02*
X588200Y177033D01*
X588900Y176708D01*
X589800Y176600D01*
X590700Y176817D01*
X591400Y177250D01*
X591900Y178008D01*
X592000Y178875D01*
X591800Y179742D01*
X591300Y180283D01*
X590600Y180717D01*
X589900Y180825D01*
X589200Y180717D01*
X588300Y180283D01*
X588600Y183100D01*
X591300D01*
G01X594600Y177358D02*
X595300Y176817D01*
X596100Y176600D01*
X596900Y176817D01*
X597600Y177466D01*
X598100Y178442D01*
X598300Y179417D01*
Y180608D01*
X598100Y181583D01*
X597600Y182450D01*
X597000Y182883D01*
X596300Y183100D01*
X595500Y182883D01*
X594900Y182450D01*
X594500Y181800D01*
X594300Y180933D01*
X594500Y180175D01*
X595000Y179417D01*
X595600Y178983D01*
X596300Y178875D01*
X597100Y179092D01*
X597700Y179633D01*
X598300Y180608D01*
G01X583300Y189600D02*
X582500Y189708D01*
X581800Y190142D01*
X581200Y190792D01*
X580800Y191550D01*
X580600Y192417D01*
Y193283D01*
X580800Y194150D01*
X581200Y194908D01*
X581800Y195558D01*
X582500Y195992D01*
X583300Y196100D01*
X584100Y195992D01*
X584800Y195558D01*
X585400Y194908D01*
X585800Y194150D01*
X586000Y193283D01*
Y192417D01*
X585800Y191550D01*
X585400Y190792D01*
X584800Y190142D01*
X584100Y189708D01*
X583300Y189600D01*
G01X584100Y191333D02*
X585300Y189600D01*
G01X589800Y196100D02*
Y189600D01*
G01X587500Y196100D02*
X592100D01*
G01X596300Y189600D02*
Y192525D01*
X594300Y196100D01*
G01X598300D02*
X596300Y192525D01*
G01X587900Y156017D02*
X588500Y156667D01*
X589200Y156992D01*
X590000Y157100D01*
X591000Y156883D01*
X591700Y156342D01*
X591900Y155692D01*
X591800Y155042D01*
X591400Y154500D01*
X589400Y153417D01*
X588500Y152658D01*
X587900Y151575D01*
X587700Y150600D01*
X591900D01*
G01X587900Y143017D02*
X588500Y143667D01*
X589200Y143992D01*
X590000Y144100D01*
X591000Y143883D01*
X591700Y143342D01*
X591900Y142692D01*
X591800Y142042D01*
X591400Y141500D01*
X589400Y140417D01*
X588500Y139658D01*
X587900Y138575D01*
X587700Y137600D01*
X591900D01*
G01X587600Y164900D02*
X588200Y164142D01*
X589000Y163708D01*
X589900Y163600D01*
X590700Y163708D01*
X591500Y164250D01*
X592000Y164900D01*
X592100Y165550D01*
X591900Y166308D01*
X591200Y166850D01*
X590500Y167067D01*
X589600D01*
G01X590500D02*
X591100Y167392D01*
X591600Y167933D01*
X591800Y168583D01*
X591600Y169233D01*
X591100Y169775D01*
X590200Y170100D01*
X589300Y169992D01*
X588400Y169558D01*
G54D15*
G01X70200Y80000D02*
X39700D01*
G01X49500Y163500D02*
Y80000D01*
G01X47100Y95700D02*
X49500Y80000D01*
X51900Y95700D01*
X47100D01*
G01X49500Y163500D02*
Y237400D01*
G01X51900Y221700D02*
X49500Y237400D01*
X47100Y221700D01*
X51900D01*
G01X70200Y237400D02*
X39700D01*
G01X80000Y80000D02*
Y237400D01*
X310600D01*
Y80000D01*
X80000D01*
G01D02*
Y237400D01*
X310600D01*
Y80000D01*
X80000D01*
G01Y247200D02*
Y264800D01*
G01X196000Y255000D02*
X80000D01*
G01X95700Y257400D02*
X80000Y255000D01*
X95700Y252600D01*
Y257400D01*
G01X196600Y69000D02*
X192500D01*
G01D02*
X197500Y67500D01*
G01Y70500D02*
X192500Y69000D01*
G01Y85000D02*
Y64000D01*
G01X191800Y119000D02*
X197000D01*
G01X192000Y120500D02*
Y117500D01*
G01X197000Y119000D02*
X192000Y120500D01*
G01Y117500D02*
X197000Y119000D01*
G01X196000Y255000D02*
X310600D01*
G01X207200Y69000D02*
X210500D01*
G01X205500Y70500D02*
Y67500D01*
G01X210500Y69000D02*
X205500Y70500D01*
G01Y67500D02*
X210500Y69000D01*
G01X197500Y67500D02*
Y70500D01*
G01X210500Y85000D02*
Y64000D01*
G01X215500Y90000D02*
X240100D01*
G01X211000Y93300D02*
X222300D01*
G01X215800Y88300D02*
X218800D01*
G01X217300Y93300D02*
X215800Y88300D01*
G01X211000Y93300D02*
X230900D01*
G01X211000Y100700D02*
X230900D01*
G01X202000Y97000D02*
X222300D01*
G01X218800Y102000D02*
X215800D01*
G01D02*
X217300Y97000D01*
G01X215500Y104000D02*
X240100D01*
G01X206000Y105700D02*
Y124000D01*
G01X197000Y105700D02*
Y124000D01*
G01X216000Y119000D02*
X206000D01*
G01X211000Y117500D02*
Y120500D01*
G01X206000Y119000D02*
X211000Y117500D01*
G01Y120500D02*
X206000Y119000D01*
G01X235100Y89000D02*
Y90000D01*
G01D02*
X236600Y95000D01*
G01X233600D02*
X235100Y90000D01*
G01X225900Y88700D02*
Y93300D01*
G01X224400Y88300D02*
X227400D01*
G01X225900Y93300D02*
X224400Y88300D01*
G01X227400D02*
X225900Y93300D01*
G01X217300Y88700D02*
Y93300D01*
G01X218800Y88300D02*
X217300Y93300D01*
G01X235100Y90000D02*
Y104000D01*
G01X236600Y95000D02*
X233600D01*
G01Y99000D02*
X236600D01*
G01X235100Y104000D02*
X233600Y99000D01*
G01X236600D02*
X235100Y104000D01*
G01X225900Y110700D02*
Y100700D01*
G01X227400Y105700D02*
X224400D01*
G01X225900Y100700D02*
X227400Y105700D01*
G01X224400D02*
X225900Y100700D01*
G01X217300Y107000D02*
Y97000D01*
G01D02*
X218800Y102000D01*
G01X279100Y69500D02*
X275000D01*
G01D02*
X280000Y68000D01*
G01Y71000D02*
X275000Y69500D01*
G01Y85500D02*
Y64500D01*
G01X274300Y119500D02*
X279500D01*
G01X274500Y121000D02*
Y118000D01*
G01X279500Y119500D02*
X274500Y121000D01*
G01Y118000D02*
X279500Y119500D01*
G01X289700Y69500D02*
X293000D01*
G01X288000Y71000D02*
Y68000D01*
G01X293000Y69500D02*
X288000Y71000D01*
G01Y68000D02*
X293000Y69500D01*
G01X280000Y68000D02*
Y71000D01*
G01X293000Y85500D02*
Y64500D01*
G01X298000Y90500D02*
X322600D01*
G01X293500Y93800D02*
X304800D01*
G01X293500D02*
X313400D01*
G01X293500Y101200D02*
X313400D01*
G01X284500Y97500D02*
X304800D01*
G01X298000Y104500D02*
X322600D01*
G01X288500Y106200D02*
Y124500D01*
G01X279500Y106200D02*
Y124500D01*
G01X298500Y119500D02*
X288500D01*
G01X293500Y118000D02*
Y121000D01*
G01X288500Y119500D02*
X293500Y118000D01*
G01Y121000D02*
X288500Y119500D01*
G01X294900Y252600D02*
X310600Y255000D01*
X294900Y257400D01*
Y252600D01*
G01X317600Y89500D02*
Y90500D01*
G01D02*
X319100Y95500D01*
G01X316100D02*
X317600Y90500D01*
G01X308400Y89200D02*
Y93800D01*
G01X306900Y88800D02*
X309900D01*
G01X308400Y93800D02*
X306900Y88800D01*
G01X309900D02*
X308400Y93800D01*
G01X299800Y89200D02*
Y93800D01*
G01X298300Y88800D02*
X301300D01*
G01X299800Y93800D02*
X298300Y88800D01*
G01X301300D02*
X299800Y93800D01*
G01X317600Y90500D02*
Y104500D01*
G01X319100Y95500D02*
X316100D01*
G01Y99500D02*
X319100D01*
G01X317600Y104500D02*
X316100Y99500D01*
G01X319100D02*
X317600Y104500D01*
G01X308400Y111200D02*
Y101200D01*
G01X309900Y106200D02*
X306900D01*
G01X308400Y101200D02*
X309900Y106200D01*
G01X306900D02*
X308400Y101200D01*
G01X299800Y107500D02*
Y97500D01*
G01X301300Y102500D02*
X298300D01*
G01X299800Y97500D02*
X301300Y102500D01*
G01X298300D02*
X299800Y97500D01*
G01X310600Y247200D02*
Y264800D01*
G01X360600Y134400D02*
Y237400D01*
X609600D01*
Y134400D01*
X360600D01*
G01Y147400D02*
X609600D01*
G01X360600Y173400D02*
X609600D01*
G01X360600Y160400D02*
X609600D01*
G01X360600Y186400D02*
X609600D01*
G01X360600Y212400D02*
X609600D01*
G01X360600Y199400D02*
X609600D01*
G01X406600D02*
Y134400D01*
G01X504600Y199400D02*
Y134400D01*
G01X570100Y199400D02*
Y134400D01*
G54D16*
G01X187833Y129467D02*
X188233Y129067D01*
X188433Y128600D01*
X188500Y128067D01*
X188367Y127400D01*
X188033Y126933D01*
X187633Y126800D01*
X187233Y126867D01*
X186900Y127133D01*
X186233Y128467D01*
X185767Y129067D01*
X185100Y129467D01*
X184500Y129600D01*
Y126800D01*
G01X184367Y123600D02*
X184433Y123733D01*
X184567D01*
X184633Y123600D01*
X184567Y123467D01*
X184433D01*
X184367Y123600D01*
G01X187833Y120267D02*
X188233Y119867D01*
X188433Y119400D01*
X188500Y118867D01*
X188367Y118200D01*
X188033Y117733D01*
X187633Y117600D01*
X187233Y117667D01*
X186900Y117933D01*
X186233Y119267D01*
X185767Y119867D01*
X185100Y120267D01*
X184500Y120400D01*
Y117600D01*
G01X184967Y115533D02*
X184633Y115067D01*
X184500Y114533D01*
X184633Y114000D01*
X185033Y113533D01*
X185633Y113200D01*
X186233Y113067D01*
X186967D01*
X187567Y113200D01*
X188100Y113533D01*
X188367Y113933D01*
X188500Y114400D01*
X188367Y114933D01*
X188100Y115333D01*
X187700Y115600D01*
X187167Y115733D01*
X186700Y115600D01*
X186233Y115267D01*
X185967Y114867D01*
X185900Y114400D01*
X186033Y113867D01*
X186367Y113467D01*
X186967Y113067D01*
G01X219300Y83400D02*
X219167Y83933D01*
X218833Y84333D01*
X218433Y84600D01*
X217900Y84800D01*
X217300Y84867D01*
X216700Y84800D01*
X216167Y84600D01*
X215767Y84333D01*
X215433Y83933D01*
X215300Y83400D01*
X215433Y82867D01*
X215767Y82467D01*
X216167Y82200D01*
X216700Y82000D01*
X217300Y81933D01*
X217900Y82000D01*
X218433Y82200D01*
X218833Y82467D01*
X219167Y82867D01*
X219300Y83400D01*
G01X215167Y78800D02*
X215233Y78933D01*
X215367D01*
X215433Y78800D01*
X215367Y78667D01*
X215233D01*
X215167Y78800D01*
G01X215767Y75333D02*
X215433Y74867D01*
X215300Y74333D01*
X215433Y73800D01*
X215833Y73333D01*
X216433Y73000D01*
X217033Y72867D01*
X217767D01*
X218367Y73000D01*
X218900Y73333D01*
X219167Y73733D01*
X219300Y74200D01*
X219167Y74733D01*
X218900Y75133D01*
X218500Y75400D01*
X217967Y75533D01*
X217500Y75400D01*
X217033Y75067D01*
X216767Y74667D01*
X216700Y74200D01*
X216833Y73667D01*
X217167Y73267D01*
X217767Y72867D01*
G01X215900Y71067D02*
X215567Y70667D01*
X215367Y70200D01*
X215300Y69600D01*
X215433Y69000D01*
X215700Y68533D01*
X216167Y68200D01*
X216700Y68133D01*
X217233Y68267D01*
X217567Y68600D01*
X217833Y69067D01*
X217900Y69533D01*
X217833Y70000D01*
X217567Y70600D01*
X219300Y70400D01*
Y68600D01*
G01X199900Y79700D02*
X203900D01*
X201033Y82167D01*
Y78833D01*
G01X199767Y75900D02*
X199833Y76033D01*
X199967D01*
X200033Y75900D01*
X199967Y75767D01*
X199833D01*
X199767Y75900D01*
G01X200500Y72767D02*
X200167Y72367D01*
X199967Y71900D01*
X199900Y71300D01*
X200033Y70700D01*
X200300Y70233D01*
X200767Y69900D01*
X201300Y69833D01*
X201833Y69967D01*
X202167Y70300D01*
X202433Y70767D01*
X202500Y71233D01*
X202433Y71700D01*
X202167Y72300D01*
X203900Y72100D01*
Y70300D01*
G01X199900Y66833D02*
X200767Y66700D01*
X201500Y66500D01*
X202167Y66233D01*
X202900Y65900D01*
X203900Y65367D01*
Y68033D01*
G01X223900Y83400D02*
X227900D01*
X227100Y84200D01*
G01X223900D02*
Y82600D01*
G01X223767Y78800D02*
X223833Y78933D01*
X223967D01*
X224033Y78800D01*
X223967Y78667D01*
X223833D01*
X223767Y78800D01*
G01X224367Y75333D02*
X224033Y74867D01*
X223900Y74333D01*
X224033Y73800D01*
X224433Y73333D01*
X225033Y73000D01*
X225633Y72867D01*
X226367D01*
X226967Y73000D01*
X227500Y73333D01*
X227767Y73733D01*
X227900Y74200D01*
X227767Y74733D01*
X227500Y75133D01*
X227100Y75400D01*
X226567Y75533D01*
X226100Y75400D01*
X225633Y75067D01*
X225367Y74667D01*
X225300Y74200D01*
X225433Y73667D01*
X225767Y73267D01*
X226367Y72867D01*
G01X227900Y69600D02*
X227767Y70133D01*
X227433Y70533D01*
X227033Y70800D01*
X226500Y71000D01*
X225900Y71067D01*
X225300Y71000D01*
X224767Y70800D01*
X224367Y70533D01*
X224033Y70133D01*
X223900Y69600D01*
X224033Y69067D01*
X224367Y68667D01*
X224767Y68400D01*
X225300Y68200D01*
X225900Y68133D01*
X226500Y68200D01*
X227033Y68400D01*
X227433Y68667D01*
X227767Y69067D01*
X227900Y69600D01*
G01X233900Y85167D02*
X233433Y84767D01*
X233167Y84233D01*
X233100Y83633D01*
X233167Y83100D01*
X233500Y82567D01*
X233900Y82233D01*
X234300Y82167D01*
X234767Y82300D01*
X235100Y82767D01*
X235233Y83233D01*
Y83833D01*
G01Y83233D02*
X235433Y82833D01*
X235767Y82500D01*
X236167Y82367D01*
X236567Y82500D01*
X236900Y82833D01*
X237100Y83433D01*
X237033Y84033D01*
X236767Y84633D01*
G01X232967Y79100D02*
X233033Y79233D01*
X233167D01*
X233233Y79100D01*
X233167Y78967D01*
X233033D01*
X232967Y79100D01*
G01X233700Y75967D02*
X233367Y75567D01*
X233167Y75100D01*
X233100Y74500D01*
X233233Y73900D01*
X233500Y73433D01*
X233967Y73100D01*
X234500Y73033D01*
X235033Y73167D01*
X235367Y73500D01*
X235633Y73967D01*
X235700Y74433D01*
X235633Y74900D01*
X235367Y75500D01*
X237100Y75300D01*
Y73500D01*
G01X234767Y71167D02*
X235233Y70700D01*
X235500Y70300D01*
X235633Y69767D01*
X235500Y69300D01*
X235233Y68967D01*
X234833Y68700D01*
X234367Y68633D01*
X233967Y68700D01*
X233567Y68967D01*
X233233Y69367D01*
X233100Y69833D01*
X233233Y70367D01*
X233633Y70833D01*
X234233Y71100D01*
X234900Y71167D01*
X235767Y71033D01*
X236233Y70833D01*
X236700Y70500D01*
X237033Y70033D01*
X237100Y69567D01*
X236967Y69100D01*
X236633Y68767D01*
G01X270333Y129967D02*
X270733Y129567D01*
X270933Y129100D01*
X271000Y128567D01*
X270867Y127900D01*
X270533Y127433D01*
X270133Y127300D01*
X269733Y127367D01*
X269400Y127633D01*
X268733Y128967D01*
X268267Y129567D01*
X267600Y129967D01*
X267000Y130100D01*
Y127300D01*
G01X266867Y124100D02*
X266933Y124233D01*
X267067D01*
X267133Y124100D01*
X267067Y123967D01*
X266933D01*
X266867Y124100D01*
G01X270333Y120767D02*
X270733Y120367D01*
X270933Y119900D01*
X271000Y119367D01*
X270867Y118700D01*
X270533Y118233D01*
X270133Y118100D01*
X269733Y118167D01*
X269400Y118433D01*
X268733Y119767D01*
X268267Y120367D01*
X267600Y120767D01*
X267000Y120900D01*
Y118100D01*
G01X267467Y116033D02*
X267133Y115567D01*
X267000Y115033D01*
X267133Y114500D01*
X267533Y114033D01*
X268133Y113700D01*
X268733Y113567D01*
X269467D01*
X270067Y113700D01*
X270600Y114033D01*
X270867Y114433D01*
X271000Y114900D01*
X270867Y115433D01*
X270600Y115833D01*
X270200Y116100D01*
X269667Y116233D01*
X269200Y116100D01*
X268733Y115767D01*
X268467Y115367D01*
X268400Y114900D01*
X268533Y114367D01*
X268867Y113967D01*
X269467Y113567D01*
G01X301800Y83900D02*
X301667Y84433D01*
X301333Y84833D01*
X300933Y85100D01*
X300400Y85300D01*
X299800Y85367D01*
X299200Y85300D01*
X298667Y85100D01*
X298267Y84833D01*
X297933Y84433D01*
X297800Y83900D01*
X297933Y83367D01*
X298267Y82967D01*
X298667Y82700D01*
X299200Y82500D01*
X299800Y82433D01*
X300400Y82500D01*
X300933Y82700D01*
X301333Y82967D01*
X301667Y83367D01*
X301800Y83900D01*
G01X297667Y79300D02*
X297733Y79433D01*
X297867D01*
X297933Y79300D01*
X297867Y79167D01*
X297733D01*
X297667Y79300D01*
G01X298267Y75833D02*
X297933Y75367D01*
X297800Y74833D01*
X297933Y74300D01*
X298333Y73833D01*
X298933Y73500D01*
X299533Y73367D01*
X300267D01*
X300867Y73500D01*
X301400Y73833D01*
X301667Y74233D01*
X301800Y74700D01*
X301667Y75233D01*
X301400Y75633D01*
X301000Y75900D01*
X300467Y76033D01*
X300000Y75900D01*
X299533Y75567D01*
X299267Y75167D01*
X299200Y74700D01*
X299333Y74167D01*
X299667Y73767D01*
X300267Y73367D01*
G01X298400Y71567D02*
X298067Y71167D01*
X297867Y70700D01*
X297800Y70100D01*
X297933Y69500D01*
X298200Y69033D01*
X298667Y68700D01*
X299200Y68633D01*
X299733Y68767D01*
X300067Y69100D01*
X300333Y69567D01*
X300400Y70033D01*
X300333Y70500D01*
X300067Y71100D01*
X301800Y70900D01*
Y69100D01*
G01X282400Y80200D02*
X286400D01*
X283533Y82667D01*
Y79333D01*
G01X282267Y76400D02*
X282333Y76533D01*
X282467D01*
X282533Y76400D01*
X282467Y76267D01*
X282333D01*
X282267Y76400D01*
G01X283000Y73267D02*
X282667Y72867D01*
X282467Y72400D01*
X282400Y71800D01*
X282533Y71200D01*
X282800Y70733D01*
X283267Y70400D01*
X283800Y70333D01*
X284333Y70467D01*
X284667Y70800D01*
X284933Y71267D01*
X285000Y71733D01*
X284933Y72200D01*
X284667Y72800D01*
X286400Y72600D01*
Y70800D01*
G01X282400Y67333D02*
X283267Y67200D01*
X284000Y67000D01*
X284667Y66733D01*
X285400Y66400D01*
X286400Y65867D01*
Y68533D01*
G01X306400Y83900D02*
X310400D01*
X309600Y84700D01*
G01X306400D02*
Y83100D01*
G01X306267Y79300D02*
X306333Y79433D01*
X306467D01*
X306533Y79300D01*
X306467Y79167D01*
X306333D01*
X306267Y79300D01*
G01X306867Y75833D02*
X306533Y75367D01*
X306400Y74833D01*
X306533Y74300D01*
X306933Y73833D01*
X307533Y73500D01*
X308133Y73367D01*
X308867D01*
X309467Y73500D01*
X310000Y73833D01*
X310267Y74233D01*
X310400Y74700D01*
X310267Y75233D01*
X310000Y75633D01*
X309600Y75900D01*
X309067Y76033D01*
X308600Y75900D01*
X308133Y75567D01*
X307867Y75167D01*
X307800Y74700D01*
X307933Y74167D01*
X308267Y73767D01*
X308867Y73367D01*
G01X310400Y70100D02*
X310267Y70633D01*
X309933Y71033D01*
X309533Y71300D01*
X309000Y71500D01*
X308400Y71567D01*
X307800Y71500D01*
X307267Y71300D01*
X306867Y71033D01*
X306533Y70633D01*
X306400Y70100D01*
X306533Y69567D01*
X306867Y69167D01*
X307267Y68900D01*
X307800Y68700D01*
X308400Y68633D01*
X309000Y68700D01*
X309533Y68900D01*
X309933Y69167D01*
X310267Y69567D01*
X310400Y70100D01*
G01X316400Y85667D02*
X315933Y85267D01*
X315667Y84733D01*
X315600Y84133D01*
X315667Y83600D01*
X316000Y83067D01*
X316400Y82733D01*
X316800Y82667D01*
X317267Y82800D01*
X317600Y83267D01*
X317733Y83733D01*
Y84333D01*
G01Y83733D02*
X317933Y83333D01*
X318267Y83000D01*
X318667Y82867D01*
X319067Y83000D01*
X319400Y83333D01*
X319600Y83933D01*
X319533Y84533D01*
X319267Y85133D01*
G01X315467Y79600D02*
X315533Y79733D01*
X315667D01*
X315733Y79600D01*
X315667Y79467D01*
X315533D01*
X315467Y79600D01*
G01X316200Y76467D02*
X315867Y76067D01*
X315667Y75600D01*
X315600Y75000D01*
X315733Y74400D01*
X316000Y73933D01*
X316467Y73600D01*
X317000Y73533D01*
X317533Y73667D01*
X317867Y74000D01*
X318133Y74467D01*
X318200Y74933D01*
X318133Y75400D01*
X317867Y76000D01*
X319600Y75800D01*
Y74000D01*
G01X317267Y71667D02*
X317733Y71200D01*
X318000Y70800D01*
X318133Y70267D01*
X318000Y69800D01*
X317733Y69467D01*
X317333Y69200D01*
X316867Y69133D01*
X316467Y69200D01*
X316067Y69467D01*
X315733Y69867D01*
X315600Y70333D01*
X315733Y70867D01*
X316133Y71333D01*
X316733Y71600D01*
X317400Y71667D01*
X318267Y71533D01*
X318733Y71333D01*
X319200Y71000D01*
X319533Y70533D01*
X319600Y70067D01*
X319467Y69600D01*
X319133Y69267D01*
M02*
