G04 ================== begin FILE IDENTIFICATION RECORD ==================*
G04 Layout Name:  C:/tempPCBDir/9c0d5618749ef6f59795ca09fdc2e18d/HQBrdTmp.brd*
G04 Film Name:    MASKTOP*
G04 File Format:  Gerber RS274X*
G04 File Origin:  Cadence Allegro -unreleased*
G04 Origin Date:  Tue Oct  5 09:21:08 2021*
G04 *
G04 Layer:  BOARD GEOMETRY/OUTLINE*
G04 Layer:  BOARD GEOMETRY/SOLDERMASK_TOP*
G04 Layer:  PACKAGE GEOMETRY/SOLDERMASK_TOP*
G04 Layer:  PIN/SOLDERMASK_TOP*
G04 *
G04 Offset:    (0.00 0.00)*
G04 Mirror:    No*
G04 Mode:      Positive*
G04 Rotation:  0*
G04 FullContactRelief:  No*
G04 UndefLineWidth:     0.11*
G04 ================== end FILE IDENTIFICATION RECORD ====================*
%FSLAX25Y25*MOIN*%
%IR0*IPPOS*OFA0.00000B0.00000*MIA0B0*SFA1.00000B1.00000*%
%ADD23R,.091X.126*%
%ADD28R,.071X.138*%
%ADD21C,.055*%
%ADD17R,.035X.035*%
%ADD10R,.079X.079*%
%ADD19R,.06X.02*%
%ADD12R,.083X.02*%
%ADD32R,.063X.016*%
%ADD15O,.031X.087*%
%ADD29R,.043X.037*%
%ADD20R,.083X.051*%
%ADD30R,.043X.055*%
%ADD27R,.043X.047*%
%ADD13R,.035X.039*%
%ADD33R,.055X.047*%
%ADD14R,.039X.035*%
%ADD26R,.047X.055*%
%ADD22O,.055X.087*%
%ADD16R,.051X.098*%
%ADD25R,.035X.079*%
%ADD24R,.039X.039*%
%ADD11R,.075X.059*%
%ADD31R,.094X.079*%
%ADD18R,.079X.059*%
%ADD34C,.00011*%
G75*
%LPD*%
G75*
G54D10*
X87700Y87600D03*
Y98700D03*
Y108100D03*
Y119100D03*
G54D11*
X92200Y225500D03*
X124800D03*
X138700D03*
X171300D03*
G54D20*
X180100Y155700D03*
Y147800D03*
Y139900D03*
Y171400D03*
Y163500D03*
Y179300D03*
G54D30*
X277700Y224500D03*
X285300D03*
G54D12*
X99500Y98300D03*
Y100800D03*
Y103400D03*
Y105900D03*
Y108500D03*
G54D21*
X189600Y224500D03*
X197500D03*
X205400D03*
G54D31*
X297000Y129900D03*
Y190100D03*
G54D22*
X181400Y224500D03*
X213600D03*
G54D13*
X114000Y108000D03*
Y114000D03*
X136000Y200300D03*
Y206700D03*
X131000D03*
Y200300D03*
X149000Y206700D03*
Y200300D03*
X167500Y113000D03*
X172500D03*
X167500Y119000D03*
X172500D03*
X165000Y206700D03*
Y200300D03*
X157500Y206700D03*
Y200300D03*
X187500Y93500D03*
Y99500D03*
X225000Y93500D03*
Y99500D03*
X269500Y92500D03*
Y86500D03*
G54D14*
X106000Y214500D03*
X112000D03*
X105800Y209500D03*
X112200D03*
X105800Y199500D03*
X112200D03*
X105800Y204500D03*
X112200D03*
X133700Y119000D03*
X127300D03*
X209500Y134000D03*
X203500D03*
X275300Y86500D03*
X273300Y114000D03*
X279700D03*
X266000Y132500D03*
X272000D03*
X266000Y120500D03*
X272000D03*
X266000Y144500D03*
X272000D03*
X266000Y154500D03*
X272000D03*
Y149500D03*
X266000D03*
Y159500D03*
X272000D03*
X272200Y175500D03*
X265800D03*
X272000Y185500D03*
X266000D03*
X272000Y190500D03*
X266000D03*
X272200Y180500D03*
X265800D03*
X278300Y216500D03*
Y230500D03*
X293000Y86500D03*
X287000D03*
X281700D03*
X292700Y108500D03*
X286300D03*
X284700Y216500D03*
Y230500D03*
G54D32*
X287200Y155100D03*
Y153100D03*
Y151100D03*
Y149200D03*
Y147200D03*
Y145200D03*
Y143300D03*
Y141300D03*
Y139300D03*
Y137400D03*
Y174800D03*
Y172800D03*
Y170800D03*
Y168900D03*
Y166900D03*
Y164900D03*
Y163000D03*
Y161000D03*
Y159000D03*
Y157000D03*
Y182600D03*
Y180700D03*
Y178700D03*
Y176700D03*
G54D23*
X233000Y105300D03*
X262100D03*
G54D24*
X239000Y196300D03*
Y208700D03*
X246500Y196300D03*
X254000D03*
X246500Y208700D03*
X254000D03*
G54D33*
X282500Y206000D03*
Y199000D03*
G54D15*
X135000Y87500D03*
X130000D03*
X125000D03*
X120000D03*
X135000Y110400D03*
X130000D03*
X125000D03*
X120000D03*
X155000Y87500D03*
X150000D03*
X145000D03*
X140000D03*
X155000Y110400D03*
X150000D03*
X145000D03*
X140000D03*
X193500Y146700D03*
Y170300D03*
X198500Y146700D03*
X203500D03*
X208500D03*
X198500Y170300D03*
X203500D03*
X208500D03*
G54D34*
G01X80000Y80000D02*
Y237400D01*
X310600D01*
Y80000D01*
X80000D01*
G54D25*
X245100Y93000D03*
X250000D03*
G54D16*
X133600Y128100D03*
X125800D03*
X117900D03*
Y190300D03*
X125800D03*
X133600D03*
X157300Y128100D03*
X149400D03*
X141500D03*
Y190300D03*
X149400D03*
X157300D03*
X173000Y128100D03*
X165100D03*
Y190300D03*
X173000D03*
G54D26*
X254000Y219000D03*
X247000D03*
X265500Y126500D03*
X272500D03*
X265500Y138500D03*
X272500D03*
G54D17*
X164300Y99000D03*
X172700D03*
X164300Y104500D03*
X172700D03*
G54D18*
X180000Y90400D03*
Y102600D03*
X217500Y89900D03*
Y102100D03*
G54D27*
X279600Y108500D03*
X273400D03*
G54D19*
X197000Y93300D03*
Y100700D03*
Y97000D03*
X206000Y93300D03*
Y100700D03*
X279500Y93800D03*
Y101200D03*
Y97500D03*
X288500Y93800D03*
Y101200D03*
G54D28*
X263400Y202500D03*
X273600D03*
G54D29*
X271400Y215300D03*
X263600Y219000D03*
X271400Y222700D03*
M02*
