G04 ================== begin FILE IDENTIFICATION RECORD ==================*
G04 Layout Name:  C:/tempPCBDir/9c0d5618749ef6f59795ca09fdc2e18d/HQBrdTmp.brd*
G04 Film Name:    TOP*
G04 File Format:  Gerber RS274X*
G04 File Origin:  Cadence Allegro -unreleased*
G04 Origin Date:  Tue Oct  5 09:21:08 2021*
G04 *
G04 Layer:  ETCH/TOP*
G04 Layer:  PIN/TOP*
G04 Layer:  VIA CLASS/TOP*
G04 *
G04 Offset:    (0.00 0.00)*
G04 Mirror:    No*
G04 Mode:      Positive*
G04 Rotation:  0*
G04 FullContactRelief:  No*
G04 UndefLineWidth:     0.11*
G04 ================== end FILE IDENTIFICATION RECORD ====================*
%FSLAX25Y25*MOIN*%
%IR0*IPPOS*OFA0.00000B0.00000*MIA0B0*SFA1.00000B1.00000*%
%ADD29R,.063X.13*%
%ADD11C,.024*%
%ADD24R,.083X.118*%
%ADD22C,.047*%
%ADD18R,.031X.031*%
%ADD10R,.075X.075*%
%ADD20R,.06X.02*%
%ADD14R,.031X.035*%
%ADD34R,.051X.043*%
%ADD15R,.035X.031*%
%ADD27R,.043X.051*%
%ADD19R,.071X.051*%
%ADD33R,.059X.012*%
%ADD30R,.039X.033*%
%ADD26R,.028X.071*%
%ADD31R,.039X.051*%
%ADD16O,.024X.079*%
%ADD25R,.039X.035*%
%ADD12R,.067X.051*%
%ADD28R,.035X.039*%
%ADD32R,.087X.071*%
%ADD13R,.079X.016*%
%ADD17R,.047X.094*%
%ADD23O,.047X.079*%
%ADD21R,.079X.047*%
%ADD35C,.01*%
%ADD36C,.015*%
%ADD37C,.006*%
G75*
%LPD*%
G75*
G36*
G01X93000Y82100D02*
Y92000D01*
G02X94500Y92800I985J-40D01*
G03X99000Y97000I1680J2711D01*
G02X99900Y98500I877J494D01*
G01X105000D01*
Y101800D01*
X105300Y102200D01*
X106800D01*
X112100Y96900D01*
X136700D01*
X139800Y93800D01*
X138600Y92600D01*
X138500Y92500D01*
G02X137800Y92900I-212J442D01*
G03X133200Y94600I-2767J-414D01*
G02X131900Y94700I-592J803D01*
G03X128200I-1850J-2101D01*
G02X126800I-700J758D01*
G03X122500Y91300I-1812J-2128D01*
G03X122300Y90200I2505J-1024D01*
G01Y84800D01*
G03X122600Y83500I2703J-61D01*
G02X121700Y82100I-912J-403D01*
G01X93000D01*
G37*
G36*
G01X148200Y92200D02*
G02X146800I-700J780D01*
G03X146200Y92700I-1997J-1786D01*
G01X144900Y93900D01*
Y95600D01*
X138700Y101800D01*
X114100D01*
X108800Y107100D01*
X105300D01*
X105000Y107400D01*
Y109400D01*
X106000Y110400D01*
Y116100D01*
X104600Y117500D01*
X98400D01*
X97000Y116100D01*
Y115500D01*
G02X96000Y114500I-997J-3D01*
G03X94500Y114000I230J-3191D01*
G02X93000Y114800I-515J840D01*
G01Y124400D01*
X82100D01*
Y126900D01*
X114000D01*
Y121900D01*
X120700D01*
G02X121400Y120200I-31J-1007D01*
G01X119700Y118500D01*
X112400D01*
X111100Y117300D01*
X110900D01*
Y110700D01*
X115300D01*
G03X115900Y110400I1560J2370D01*
G01X116000D01*
X116500Y109900D01*
Y107400D01*
X117800Y106100D01*
Y106000D01*
G03X118400Y105500I2013J1806D01*
G01X118900Y105000D01*
X119500D01*
G03X120500I500J2650D01*
G01X121600D01*
X122700Y106100D01*
X123100Y105700D01*
G03X126800I1850J1958D01*
G02X128200I700J-780D01*
G03X131800I1800J1950D01*
G02X133200I700J-780D01*
G03X136800I1800J1950D01*
G02X138200I700J-780D01*
G03X141800I1800J1950D01*
G02X143200I700J-780D01*
G03X146800I1800J1950D01*
G02X148200I700J-780D01*
G03X151800I1800J1950D01*
G02X153200I700J-780D01*
G03X155000Y104900I1921J1896D01*
G02X156000Y103900I16J-984D01*
G01Y98800D01*
X155600Y98700D01*
G03X154300Y94300I904J-2659D01*
G02X153900Y92700I-766J-658D01*
G03X153200Y92200I1188J-2404D01*
G02X151800I-700J780D01*
G03X148200I-1800J-1950D01*
G37*
G36*
G01X158300Y82100D02*
G02X157400Y83500I12J997D01*
G03X157700Y84800I-2403J1239D01*
G01Y90200D01*
G03X157200Y91900I-2716J125D01*
G02X157600Y93400I769J598D01*
G03X158100Y93700I-1187J2545D01*
G01X158400Y93900D01*
X159400Y93000D01*
X166100D01*
X167500Y94400D01*
Y95200D01*
G03Y97000I-2600J900D01*
G01Y97700D01*
G02X168400Y98000I507J-22D01*
G01X169600Y96700D01*
Y95900D01*
X175800D01*
Y96000D01*
X189100D01*
X189400Y96200D01*
X190600D01*
Y97400D01*
X191100Y98000D01*
X199700D01*
Y95800D01*
X192500D01*
Y90800D01*
X210500D01*
Y95800D01*
Y97200D01*
G02X211400Y97500I506J-18D01*
G01X212900Y96000D01*
X227100D01*
X228500Y97400D01*
Y108600D01*
X226100Y111000D01*
X220500D01*
G02X219800Y112700I-16J988D01*
G01X221700Y114700D01*
X267400D01*
G03X269500Y113700I2100J1705D01*
G02X270000Y113200I16J-484D01*
G01Y110900D01*
X270100D01*
Y105000D01*
X277200D01*
Y103700D01*
X275000D01*
Y98700D01*
X293000D01*
Y103700D01*
X292400D01*
G02X292000Y104600I-63J511D01*
G01X292900Y105400D01*
X296000D01*
Y111600D01*
X289400D01*
Y108500D01*
X286200Y105300D01*
Y103700D01*
X281800D01*
Y105000D01*
X282900D01*
Y110900D01*
X283000D01*
Y111300D01*
G03Y116700I500J2700D01*
G01Y117100D01*
X275300D01*
Y118500D01*
X275800D01*
X279000Y121700D01*
Y124200D01*
X283000Y128200D01*
Y133300D01*
X285000Y135300D01*
X291100D01*
Y124800D01*
X302900D01*
Y135000D01*
X291700D01*
Y176400D01*
X292200D01*
X295300Y179500D01*
Y183900D01*
X295000Y184200D01*
G02X295300Y185000I343J328D01*
G01X302900D01*
Y195200D01*
X293300D01*
Y219500D01*
X290000Y222800D01*
X281900D01*
X281200Y223500D01*
Y227400D01*
X281600D01*
Y233600D01*
X275000D01*
Y228600D01*
X274200D01*
Y225900D01*
X267900D01*
Y222200D01*
X266000D01*
X265100Y223000D01*
X257700D01*
Y223100D01*
X243300D01*
Y223000D01*
X237900D01*
X235500Y220600D01*
Y205400D01*
X236400D01*
X236900Y205000D01*
X248600D01*
X249100Y205400D01*
X257500D01*
Y205500D01*
X258400D01*
X258600Y205200D01*
Y194400D01*
X268700D01*
Y182400D01*
X268900D01*
Y178600D01*
X262500D01*
Y178300D01*
X262200Y178200D01*
G03Y172800I600J-2700D01*
G01X262500Y172700D01*
Y172400D01*
X272700D01*
X273000Y172200D01*
G02X272600Y171300I-332J-391D01*
G01X254600D01*
G02X253800Y172900I-4J998D01*
G03X249400Y176300I-2336J1524D01*
G01X240200D01*
X207200Y209300D01*
Y221000D01*
G03X208300Y221900I-1885J3426D01*
G02X210000Y221600I760J-662D01*
G03X217500Y222900I3637J1300D01*
G01Y226100D01*
G03X210000Y227400I-3863J0D01*
G02X208300Y227100I-940J362D01*
G03X202300Y226800I-2877J-2611D01*
G02X200600I-850J594D01*
G03X194400I-3100J-2300D01*
G02X192700I-850J594D01*
G03X186700Y227100I-3123J-2311D01*
G02X185000Y227400I-760J662D01*
G03X177500Y226100I-3637J-1300D01*
G01Y222900D01*
G03X185000Y221600I3863J0D01*
G02X186700Y221900I940J-362D01*
G03X192700Y222200I2877J2611D01*
G02X194400I850J-594D01*
G03X198400Y220700I3141J2292D01*
G01X198700Y220800D01*
X199500Y219900D01*
Y213300D01*
X200700Y212100D01*
Y207800D01*
X212900Y195500D01*
G02X212200Y193800I-684J-712D01*
G01X187300D01*
X182700Y189300D01*
X182500D01*
G03X180300Y184800I0J-2788D01*
G02X179500Y183200I-777J-612D01*
G01X174600D01*
Y137800D01*
X173700D01*
X172200Y139300D01*
X151200D01*
X147600Y135700D01*
Y134300D01*
X137300D01*
G02X136300Y135400I-7J998D01*
G03X131400Y137300I-2788J78D01*
G01X127300D01*
X124300Y134300D01*
X121800D01*
G02X120800Y135400I-7J998D01*
G03X115200I-2800J100D01*
G02X114600Y134400I-988J-87D01*
G01X114500Y134300D01*
X113900D01*
Y184100D01*
X131800D01*
Y183200D01*
X133800Y181200D01*
X135400D01*
G03X139300Y180800I2154J1793D01*
G02X139900I300J-381D01*
G03X144300Y183100I1599J2300D01*
G02X145300Y184100I999J1D01*
G01X145600D01*
G02X146600Y183100I1J-999D01*
G03X152200I2800J0D01*
G02X153200Y184100I999J1D01*
G01X153500D01*
G02X154500Y183100I1J-999D01*
G03X160100I2800J0D01*
G02X161100Y184100I999J1D01*
G01X161300D01*
G02X162300Y183100I1J-999D01*
G03X167900I2800J0D01*
G02X168900Y184100I999J1D01*
G01X169000D01*
Y196500D01*
X168100D01*
Y203600D01*
X161900D01*
Y196500D01*
X160600D01*
Y210000D01*
X160300D01*
Y210400D01*
G03X154700I-2800J-400D01*
G01Y210000D01*
X154400D01*
Y196500D01*
X152100D01*
Y210000D01*
X151800D01*
Y210400D01*
G03X148900Y212800I-2780J-408D01*
G02X147800Y213800I-102J993D01*
G01Y219700D01*
X143600Y224000D01*
Y229600D01*
X133800D01*
Y221400D01*
X141000D01*
X144200Y218300D01*
Y202600D01*
X145900Y200800D01*
Y196500D01*
X139100D01*
Y203600D01*
X134100D01*
Y210000D01*
X133800D01*
Y210400D01*
G03X128200I-2800J-400D01*
G01Y210000D01*
X127900D01*
Y203100D01*
X127500D01*
G03X125800Y202200I376J-2766D01*
G02X124300I-750J696D01*
G01X120200Y206300D01*
X118600D01*
G02X117800Y207900I-4J998D01*
G03X115900Y212300I-2297J1618D01*
G01X115500D01*
Y212600D01*
X109300D01*
Y217600D01*
X107800D01*
Y222700D01*
X103200Y227300D01*
X97100D01*
Y229600D01*
X87300D01*
Y221400D01*
X97100D01*
Y223700D01*
X101800D01*
X104200Y221300D01*
Y217600D01*
X102700D01*
Y212600D01*
X102500D01*
Y212200D01*
G03X99900Y207700I-468J-2731D01*
G02Y206300I-758J-700D01*
G03Y202700I2100J-1800D01*
G02Y201300I-758J-700D01*
G03X102500Y196800I2132J-1769D01*
G01Y196400D01*
X114000D01*
Y191100D01*
X82100D01*
Y235300D01*
X308500D01*
Y82100D01*
X298600D01*
G02X297900Y83800I23J1004D01*
G01X299500Y85400D01*
Y93600D01*
X296600Y96500D01*
X273600D01*
X272100Y98000D01*
X252900D01*
Y98100D01*
X247100D01*
Y98000D01*
X247000D01*
Y87400D01*
X248900Y85500D01*
X255600D01*
X259100Y89000D01*
X278400D01*
Y83400D01*
X290900D01*
X291400Y83000D01*
G02X291100Y82100I-318J-394D01*
G01X158300D01*
G37*
G36*
G01X116000Y112500D02*
X112500D01*
Y116500D01*
X113000Y117000D01*
X120000D01*
X121500Y115500D01*
Y107000D01*
X121000Y106500D01*
X119500D01*
X118000Y108000D01*
Y110500D01*
X116000Y112500D01*
G37*
G36*
G01X95500Y108000D02*
Y108700D01*
G02X95900Y109100I391J9D01*
G03X97900Y109900I284J2189D01*
G01X98500Y110500D01*
Y115500D01*
X99000Y116000D01*
X104000D01*
X104500Y115500D01*
Y111000D01*
X103500Y110000D01*
Y108000D01*
X103000Y107500D01*
X96000D01*
X95500Y108000D01*
G37*
G36*
G01X138200Y115100D02*
G02X137000Y115000I-668J769D01*
G01X136800Y115200D01*
Y115900D01*
X137000D01*
Y121900D01*
X160200D01*
G02X160900Y120200I-31J-1007D01*
G01X156200Y115600D01*
X155900Y115700D01*
G03X153200Y115100I-850J-2550D01*
G02X151800I-700J780D01*
G03X148200I-1800J-1950D01*
G02X146800I-700J780D01*
G03X143200I-1800J-1950D01*
G02X141800I-700J780D01*
G03X138200I-1800J-1950D01*
G37*
G36*
G01X256400Y120800D02*
X219400D01*
X209900Y111300D01*
X202300D01*
X198900Y108000D01*
X170000D01*
Y109500D01*
X166100D01*
X160000D01*
Y113700D01*
X163300Y117000D01*
X164400D01*
Y115700D01*
X175600D01*
Y116900D01*
X181000Y122400D01*
Y131200D01*
X181500Y131700D01*
X200200D01*
Y130900D01*
X206800D01*
Y137700D01*
X208400D01*
X210800Y140100D01*
Y142500D01*
X210900Y142600D01*
G03X211200Y144000I-2416J1250D01*
G01Y149400D01*
G03X206700Y151400I-2686J18D01*
G02X205300I-700J780D01*
G03X201700I-1800J-1950D01*
G02X200300I-700J780D01*
G03X199300Y152000I-1844J-1940D01*
G02X198700Y153200I367J933D01*
G03X198800Y154000I-2707J745D01*
G01Y154200D01*
X204500Y160000D01*
X268700D01*
Y141400D01*
X268800D01*
Y135600D01*
X268700D01*
Y129400D01*
X268800D01*
Y123600D01*
X268700D01*
Y119200D01*
X268400Y119100D01*
G03X267400Y118300I1200J-2526D01*
G01X262300D01*
G02X261300Y119200I-8J996D01*
G03X256400Y120800I-2782J-218D01*
G37*
G36*
G01X159500Y96000D02*
Y100500D01*
X160000Y101000D01*
X165500D01*
X166000Y100500D01*
Y96000D01*
Y95000D01*
X165500Y94500D01*
X160000D01*
X159500Y95000D01*
Y96000D01*
G37*
G36*
G01Y103000D02*
Y107500D01*
X160000Y108000D01*
X165500D01*
X166000Y107500D01*
Y103000D01*
X165500Y102500D01*
X160000D01*
X159500Y103000D01*
G37*
G36*
G01X199000Y106000D02*
X200000Y105000D01*
Y99500D01*
X190500D01*
X188500Y97500D01*
X171000D01*
X170000Y98500D01*
Y105000D01*
X171000Y106000D01*
X199000D01*
G37*
G36*
G01X174000Y117500D02*
X166000D01*
Y121000D01*
X169000D01*
X170500Y122500D01*
Y133000D01*
X178000D01*
X179500Y131500D01*
Y123000D01*
X174000Y117500D01*
G37*
G36*
G01X185600Y155500D02*
Y182700D01*
G02X186700Y183700I976J31D01*
G03X188900Y184500I234J2782D01*
G02X189600I350J-412D01*
G03X193400I1900J2000D01*
G02X194100I350J-412D01*
G03X198100Y184700I1904J2018D01*
G01X205400D01*
G02X206200Y183100I4J-998D01*
G03X206700Y179400I2304J-1572D01*
G01Y175100D01*
G03X206400Y174700I1986J-1802D01*
G02X205600I-400J353D01*
G03X200800Y173000I-2108J-1674D01*
G01Y167600D01*
G03Y167300I2702J-150D01*
G01Y166800D01*
X199300D01*
X187300Y154800D01*
G02X185600Y155500I-706J701D01*
G37*
G36*
G01X204000Y106000D02*
X213500D01*
X217000Y109500D01*
X225500D01*
X227000Y108000D01*
Y98000D01*
X226500Y97500D01*
X213500D01*
X211500Y99500D01*
X203000D01*
Y105000D01*
X204000Y106000D01*
G37*
G36*
G01X211900Y165200D02*
G02X211000Y166600I30J1009D01*
G03X211200Y167600I-2493J1019D01*
G01Y173000D01*
G03X210300Y175100I-2710J81D01*
G01Y179400D01*
G03X210100Y183800I-1810J2122D01*
G01X209900Y183900D01*
Y184700D01*
X211400D01*
X229100Y166900D01*
G02X228400Y165200I-684J-712D01*
G01X211900D01*
G37*
G36*
G01X237500Y206500D02*
X237000Y207000D01*
Y220000D01*
X238500Y221500D01*
X249000D01*
Y207500D01*
X248000Y206500D01*
X237500D01*
G37*
G36*
G01X248500Y88000D02*
Y96500D01*
X271500D01*
X273000Y95000D01*
X274500D01*
X282500D01*
Y91000D01*
X282000Y90500D01*
X258500D01*
X255000Y87000D01*
X249500D01*
X248500Y88000D01*
G37*
G36*
G01X252000Y207500D02*
Y221500D01*
X264500D01*
X266500Y219500D01*
Y196000D01*
X261000D01*
X260500Y196500D01*
Y205500D01*
X259000Y207000D01*
X252500D01*
X252000Y207500D01*
G37*
G36*
G01X282500Y154000D02*
X276000D01*
X274500Y155500D01*
Y157000D01*
X273500Y158000D01*
X270500D01*
Y161000D01*
X278000D01*
X283000Y156000D01*
Y154500D01*
X282500Y154000D01*
G37*
G36*
G01X270500Y196000D02*
Y209500D01*
X276500D01*
X277000Y209000D01*
Y202000D01*
X277500Y201500D01*
X285000D01*
Y194500D01*
X284000Y193500D01*
X277500D01*
X275000Y196000D01*
X270500D01*
G37*
G36*
G01X278500Y203000D02*
Y209600D01*
X278400Y209800D01*
Y210600D01*
X277500D01*
X277100Y211000D01*
X268000D01*
Y212100D01*
X274900D01*
Y213300D01*
X277900D01*
X278100Y213400D01*
X278500D01*
X281100Y210900D01*
X286600D01*
X287000Y210500D01*
Y203000D01*
X278500D01*
G37*
G36*
G01X285500Y95000D02*
X296000D01*
X298000Y93000D01*
Y86000D01*
X296500Y84500D01*
X292000D01*
X291000Y85500D01*
Y89000D01*
X287000D01*
X285500Y90500D01*
Y95000D01*
G37*
G36*
G01X288700Y214900D02*
X282700D01*
X281600Y216100D01*
Y218200D01*
X288000D01*
X288700Y217500D01*
Y214900D01*
G37*
%LPC*%
G75*
G36*
G01X249300Y191900D02*
G02X243700I-2800J-400D01*
G03X243000Y193000I-972J154D01*
G01Y199600D01*
X257500D01*
Y193000D01*
G03X256800Y191900I272J-946D01*
G02X251200I-2800J-400D01*
G03X250200Y193000I-964J128D01*
G03X249300Y191900I64J-971D01*
G37*
%LPD*%
G75*
G54D10*
X87700Y87600D03*
Y98700D03*
Y108100D03*
Y119100D03*
G54D20*
X197000Y93300D03*
Y100700D03*
Y97000D03*
X206000Y93300D03*
Y100700D03*
X279500Y93800D03*
Y101200D03*
Y97500D03*
X288500Y93800D03*
Y101200D03*
G54D11*
X96000Y84500D03*
Y89000D03*
X94200Y98300D03*
X84500Y125500D03*
X95000Y120000D03*
X92500Y125000D03*
Y197500D03*
X85500Y197000D03*
X92500Y202500D03*
Y207500D03*
Y212500D03*
Y217500D03*
X85500Y202000D03*
Y207000D03*
Y212000D03*
Y217000D03*
X86500Y233000D03*
X93500D03*
X99500Y87500D03*
X103000Y84000D03*
X96200Y95500D03*
Y111300D03*
X112000Y104500D03*
X108500Y108000D03*
X114500Y96100D03*
X109300Y98300D03*
X101500Y112000D03*
X102800Y114500D03*
X100000D03*
X110000Y120500D03*
X101500Y120000D03*
X107500Y125000D03*
X112500D03*
X97500D03*
X102500D03*
X102000Y199500D03*
Y204500D03*
X115300Y214500D03*
X102000Y209500D03*
X115500D03*
X108000Y229000D03*
X115000D03*
X111000Y225000D03*
X109500Y233500D03*
X114500D03*
X104500D03*
X99500D03*
X130000Y92600D03*
X125000D03*
X135000Y92500D03*
X132500Y96100D03*
X122500D03*
X132500Y102600D03*
X122500D03*
X117000Y113000D03*
X118000Y135500D03*
X133500D03*
X118000Y147500D03*
X136000D03*
X118000Y177500D03*
Y167500D03*
Y157500D03*
X136000Y167500D03*
Y177500D03*
Y157500D03*
Y210000D03*
X127800Y200300D03*
X131000Y210000D03*
X118000Y225000D03*
X119500Y233500D03*
X134500D03*
X124800Y221300D03*
Y230000D03*
X129800Y225500D03*
X138500Y93500D03*
X146000D03*
X156500Y96000D03*
X154000Y104000D03*
X151500Y99000D03*
X147500Y103000D03*
X144500Y98500D03*
X140500Y102600D03*
X147500Y119000D03*
X143500D03*
X155500Y146000D03*
Y156000D03*
X150000Y142000D03*
Y152000D03*
X143000Y147500D03*
X155500Y176000D03*
Y166000D03*
X150000Y172000D03*
Y162000D03*
X143000Y167500D03*
Y177500D03*
Y157500D03*
X141500Y183100D03*
X149400D03*
X137500Y183000D03*
X150000Y217000D03*
X157000D03*
X149000Y210000D03*
X155000Y227500D03*
X151500Y222500D03*
X139500Y233500D03*
X144500D03*
X149500D03*
X154500D03*
X172500Y89500D03*
Y92500D03*
X176000Y111500D03*
X164900Y96100D03*
X161000D03*
Y106500D03*
Y103700D03*
X158500Y120500D03*
X177500Y126000D03*
X157300Y135000D03*
X165100D03*
X169500Y155500D03*
X162500Y151500D03*
X169500Y175500D03*
Y165500D03*
X162500Y171500D03*
Y161500D03*
X173000Y197500D03*
X157300Y183100D03*
X165100D03*
X173500Y209500D03*
X165000Y210000D03*
X157500D03*
X162000Y227500D03*
X171500Y233500D03*
X164500D03*
X158500Y222500D03*
X171300Y230000D03*
Y221000D03*
X176300Y225500D03*
X196500Y88500D03*
X191500D03*
Y95500D03*
X186000Y89500D03*
X185000Y112500D03*
X190000D03*
X195000D03*
X194500Y130500D03*
X189500D03*
X184500D03*
X195000Y117500D03*
X190000D03*
X185000D03*
X187500Y149500D03*
X196000Y154000D03*
X193500Y175500D03*
Y164000D03*
X188000Y159000D03*
Y164000D03*
Y169000D03*
Y174000D03*
X197000Y197000D03*
X182500D03*
X189500D03*
X187000Y186500D03*
X196000D03*
X191500D03*
X182500D03*
X188500Y210000D03*
X195500D03*
X192000Y203000D03*
X178000Y202500D03*
X185000D03*
X180500Y209500D03*
X198000Y234000D03*
X193000D03*
X188000D03*
X215500Y94000D03*
X211500Y88500D03*
X206500D03*
X201500D03*
X205000Y112500D03*
X200000D03*
X209500Y125500D03*
X199500Y130500D03*
X200000Y117500D03*
X215500Y121500D03*
Y131500D03*
X209500Y131000D03*
X212500Y134000D03*
X215500Y141500D03*
Y151500D03*
X198500Y175500D03*
X214000Y167500D03*
Y172500D03*
Y177500D03*
X204000Y197000D03*
X208500Y181500D03*
X199000Y203000D03*
X203000Y234000D03*
X208000D03*
X236500Y94500D03*
Y89500D03*
X221000Y94000D03*
X223500Y88500D03*
X237500Y108500D03*
Y113500D03*
X222000Y107500D03*
X218500D03*
X225000D03*
X218500Y126500D03*
Y136500D03*
X235000Y125000D03*
Y135000D03*
X218500Y146500D03*
Y156500D03*
X235000Y145000D03*
Y155000D03*
X219000Y172500D03*
Y167500D03*
X233500Y188500D03*
X235700Y196300D03*
X233500Y200500D03*
X228500Y212500D03*
X221500D03*
X227500Y232500D03*
X220500D03*
X230500Y218500D03*
X223500D03*
X237000Y227000D03*
X232000D03*
X237500Y233500D03*
X241500Y89500D03*
Y94500D03*
X256500Y93000D03*
X253500Y91000D03*
Y94500D03*
X257500Y108500D03*
X242500D03*
X247500D03*
X252500D03*
X257500Y113500D03*
X242500D03*
X247500D03*
X252500D03*
X245000Y135000D03*
X250000D03*
X240000D03*
X255000D03*
X250000Y125000D03*
X245000D03*
X240000D03*
X258500Y119000D03*
X245000Y145000D03*
X250000D03*
X240000D03*
Y155000D03*
X245000D03*
X250000D03*
X251500Y174500D03*
X248500Y172000D03*
X240500Y178500D03*
X247500D03*
X240500Y188500D03*
X241000Y184000D03*
X248000D03*
X242300Y196300D03*
X239000Y193000D03*
X254000Y191500D03*
X246500D03*
X240500Y200500D03*
X242000Y227000D03*
X247000D03*
X252000D03*
X257500Y233500D03*
X242500D03*
X247500D03*
X252500D03*
X272500Y83700D03*
X275000Y97500D03*
X261700Y121500D03*
Y126500D03*
X263000Y132500D03*
X276500Y130500D03*
X269500Y116500D03*
X261700Y138500D03*
X263000Y154500D03*
Y149500D03*
Y144500D03*
X275500Y157000D03*
X276300Y138500D03*
X262500Y159000D03*
X262800Y175500D03*
X275500Y159800D03*
X263000Y190500D03*
Y185500D03*
X262800Y180500D03*
X278500Y195000D03*
X262500Y229500D03*
X269500D03*
X295000Y90500D03*
Y93500D03*
X290600Y90000D03*
X288500Y113500D03*
X300000Y111000D03*
Y116000D03*
Y106000D03*
Y101000D03*
X286300Y112300D03*
X284000Y97500D03*
X283500Y114000D03*
X288500Y118500D03*
Y123500D03*
Y128500D03*
Y133500D03*
X300000Y121000D03*
X297500Y151000D03*
Y156000D03*
Y146000D03*
X292000Y151100D03*
X281000Y152000D03*
X297500Y161000D03*
Y166000D03*
X282500Y195000D03*
X298000Y216500D03*
Y211500D03*
X288000Y216500D03*
X281500Y209500D03*
X286500D03*
Y206000D03*
X298000Y226500D03*
Y231500D03*
Y221500D03*
X288000Y230500D03*
X288600Y224500D03*
X305000Y90500D03*
Y95500D03*
Y85500D03*
Y100500D03*
Y105500D03*
Y115000D03*
Y120000D03*
Y125000D03*
Y130000D03*
Y135000D03*
X303000Y156000D03*
Y171000D03*
Y176000D03*
Y161000D03*
Y166000D03*
X305000Y197500D03*
Y182500D03*
Y187500D03*
Y192500D03*
Y207500D03*
Y212500D03*
Y217500D03*
Y202500D03*
Y222500D03*
G54D21*
X180100Y155700D03*
Y147800D03*
Y139900D03*
Y171400D03*
Y163500D03*
Y179300D03*
G54D12*
X92200Y225500D03*
X124800D03*
X138700D03*
X171300D03*
G54D30*
X271400Y215300D03*
X263600Y219000D03*
X271400Y222700D03*
G54D13*
X99500Y98300D03*
Y100800D03*
Y103400D03*
Y105900D03*
Y108500D03*
G54D31*
X277700Y224500D03*
X285300D03*
G54D22*
X189600D03*
X197500D03*
X205400D03*
G54D23*
X181400D03*
X213600D03*
G54D32*
X297000Y129900D03*
Y190100D03*
G54D14*
X114000Y108000D03*
Y114000D03*
X136000Y200300D03*
Y206700D03*
X131000D03*
Y200300D03*
X149000Y206700D03*
Y200300D03*
X167500Y113000D03*
X172500D03*
X167500Y119000D03*
X172500D03*
X165000Y206700D03*
Y200300D03*
X157500Y206700D03*
Y200300D03*
X187500Y93500D03*
Y99500D03*
X225000Y93500D03*
Y99500D03*
X269500Y92500D03*
Y86500D03*
G54D33*
X287200Y155100D03*
Y153100D03*
Y151100D03*
Y149200D03*
Y147200D03*
Y145200D03*
Y143300D03*
Y141300D03*
Y139300D03*
Y137400D03*
Y174800D03*
Y172800D03*
Y170800D03*
Y168900D03*
Y166900D03*
Y164900D03*
Y163000D03*
Y161000D03*
Y159000D03*
Y157000D03*
Y182600D03*
Y180700D03*
Y178700D03*
Y176700D03*
G54D15*
X106000Y214500D03*
X112000D03*
X105800Y209500D03*
X112200D03*
X105800Y199500D03*
X112200D03*
X105800Y204500D03*
X112200D03*
X133700Y119000D03*
X127300D03*
X209500Y134000D03*
X203500D03*
X275300Y86500D03*
X273300Y114000D03*
X279700D03*
X266000Y132500D03*
X272000D03*
X266000Y120500D03*
X272000D03*
X266000Y144500D03*
X272000D03*
X266000Y154500D03*
X272000D03*
Y149500D03*
X266000D03*
Y159500D03*
X272000D03*
X272200Y175500D03*
X265800D03*
X272000Y185500D03*
X266000D03*
X272000Y190500D03*
X266000D03*
X272200Y180500D03*
X265800D03*
X278300Y216500D03*
Y230500D03*
X293000Y86500D03*
X287000D03*
X281700D03*
X292700Y108500D03*
X286300D03*
X284700Y216500D03*
Y230500D03*
G54D24*
X233000Y105300D03*
X262100D03*
G54D25*
X239000Y196300D03*
Y208700D03*
X246500Y196300D03*
X254000D03*
X246500Y208700D03*
X254000D03*
G54D16*
X135000Y87500D03*
X130000D03*
X125000D03*
X120000D03*
X135000Y110400D03*
X130000D03*
X125000D03*
X120000D03*
X155000Y87500D03*
X150000D03*
X145000D03*
X140000D03*
X155000Y110400D03*
X150000D03*
X145000D03*
X140000D03*
X193500Y146700D03*
Y170300D03*
X198500Y146700D03*
X203500D03*
X208500D03*
X198500Y170300D03*
X203500D03*
X208500D03*
G54D34*
X282500Y206000D03*
Y199000D03*
G54D35*
G01X135000Y87500D02*
Y92500D01*
G01X120000Y116000D02*
X123000Y119000D01*
X127300D01*
G01X131000Y206700D02*
Y210000D01*
G01X153000Y93000D02*
X157000D01*
X157500Y92500D01*
G01X156500Y96000D02*
X158000Y97500D01*
Y114500D01*
X162500Y119000D01*
X167500D01*
G01X193500Y170300D02*
Y175500D01*
G01X198500Y170300D02*
Y175500D01*
G01X254000Y196300D02*
Y191500D01*
G01X246500Y196300D02*
Y191500D01*
G01X272000Y132500D02*
X274000D01*
X282800Y141300D01*
X287200D01*
G01X276500Y130500D02*
X278500Y132500D01*
Y134100D01*
X283700Y139300D01*
X287200D01*
G01X276500Y130500D02*
X272500Y126500D01*
G01X272000Y120500D02*
X275000D01*
X277000Y122500D01*
Y125000D01*
X281000Y129000D01*
Y134100D01*
X284300Y137400D01*
X287200D01*
G01Y149200D02*
X278800D01*
X273500Y154500D01*
X272000D01*
G01Y144500D02*
X276300D01*
X277000Y145200D01*
X287200D01*
G01X272500Y138500D02*
X276300D01*
G01D02*
X276500D01*
X281300Y143300D01*
X287200D01*
G01X272000Y149500D02*
X275500D01*
X277800Y147200D01*
X287200D01*
G01X272000Y185500D02*
X276000Y181500D01*
Y178000D01*
X279200Y174800D01*
X287200D01*
G01X272000Y190500D02*
X278000Y184500D01*
Y180500D01*
X281800Y176700D01*
X287200D01*
G01Y180700D02*
X284000D01*
X283000Y181700D01*
Y185500D01*
X289000Y191500D01*
Y211300D01*
X287400Y212900D01*
X281900D01*
X278300Y216500D01*
G01X271400Y215300D02*
X277100D01*
X278300Y216500D01*
G01X281000Y152000D02*
X281900Y151100D01*
X287200D01*
G01D02*
X292000D01*
G01X287200Y155100D02*
X281400D01*
G01D02*
X283400Y153100D01*
X287200D01*
G54D17*
X133600Y128100D03*
X125800D03*
X117900D03*
Y190300D03*
X125800D03*
X133600D03*
X157300Y128100D03*
X149400D03*
X141500D03*
Y190300D03*
X149400D03*
X157300D03*
X173000Y128100D03*
X165100D03*
Y190300D03*
X173000D03*
G54D26*
X245100Y93000D03*
X250000D03*
G54D36*
G01X99500Y98300D02*
X94200D01*
G01X112000Y104500D02*
X108500Y108000D01*
G01X114500Y96100D02*
X120000D01*
G01X122500Y102600D02*
X113900D01*
X112000Y104500D01*
G01X99500Y98300D02*
X109300D01*
G01X114000Y108000D02*
Y106500D01*
X112000Y104500D01*
G01X109300Y98300D02*
X111500Y96100D01*
X114500D01*
G01X112000Y214500D02*
X115300D01*
G01X112200Y209500D02*
X115500D01*
G01X120000Y96100D02*
Y87500D01*
G01X132500Y96100D02*
X135900D01*
X138500Y93500D01*
G01X122500Y96100D02*
X132500D01*
G01X140500Y102600D02*
X132500D01*
G01D02*
X122500D01*
G01X120000Y96100D02*
X122500D01*
G01X124800Y225500D02*
Y230000D01*
G01Y225500D02*
X129800D01*
G01X124800D02*
Y221300D01*
G01X144500Y98500D02*
X146000Y97000D01*
Y93500D01*
G01X140500Y102600D02*
X144500Y98600D01*
Y98500D01*
G01X136000Y206700D02*
Y210000D01*
G01X149000Y206700D02*
Y210000D01*
G01X173000Y190300D02*
Y197500D01*
G01X165000Y206700D02*
Y210000D01*
G01X157500Y206700D02*
Y210000D01*
G01X171300Y225500D02*
Y221000D01*
G01Y225500D02*
Y230000D01*
G01Y225500D02*
X176300D01*
G01X203500Y134000D02*
X180500D01*
X177500Y131000D01*
G01X181400Y218500D02*
Y224500D01*
G01D02*
Y230500D01*
G01X177000Y224500D02*
X181400D01*
G01X209500Y134000D02*
Y131000D01*
G01Y134000D02*
X212500D01*
G01X203500D02*
Y140000D01*
G01D02*
Y146700D01*
G01X208500D02*
Y141100D01*
X207400Y140000D01*
X203500D01*
G01X213600Y218500D02*
Y224500D01*
G01D02*
Y230500D01*
G01Y224500D02*
X218000D01*
G01X239000Y196300D02*
X235700D01*
G01X239000D02*
X242300D01*
G01X239000D02*
Y193000D01*
G01X279500Y97500D02*
X275000D01*
G01X273400Y108500D02*
Y113900D01*
X273300Y114000D01*
G01X265500Y126500D02*
X261700D01*
G01X266000Y132500D02*
X263000D01*
G01X266000Y120500D02*
X262700D01*
X261700Y121500D01*
G01X265500Y138500D02*
X261700D01*
G01X266000Y154500D02*
X263000D01*
G01X266000Y149500D02*
X263000D01*
G01X266000Y144500D02*
X263000D01*
G01X266000Y159500D02*
X265500Y159000D01*
X262500D01*
G01X265800Y175500D02*
X262800D01*
G01X266000Y190500D02*
X263000D01*
G01X266000Y185500D02*
X263000D01*
G01X265800Y180500D02*
X262800D01*
G01X277700Y224500D02*
Y223700D01*
X280900Y220500D01*
X289000D01*
X291000Y218500D01*
Y184900D01*
X293000Y182900D01*
Y180500D01*
X291200Y178700D01*
X287200D01*
G01X277700Y224500D02*
Y229900D01*
X278300Y230500D01*
G01X271400Y222700D02*
X275900D01*
X277700Y224500D01*
G01X281700Y86500D02*
X287000D01*
G01X286300Y108500D02*
Y112300D01*
G01X279500Y97500D02*
X284000D01*
G01X283500Y114000D02*
X279700D01*
G01X279500Y101200D02*
Y108400D01*
X279600Y108500D01*
G01X288500Y101200D02*
Y104300D01*
X292700Y108500D01*
G01X284700Y216500D02*
X288000D01*
G01X284700Y230500D02*
X288000D01*
G01X285300Y224500D02*
X288600D01*
G54D27*
X254000Y219000D03*
X247000D03*
X265500Y126500D03*
X272500D03*
X265500Y138500D03*
X272500D03*
G54D18*
X164300Y99000D03*
X172700D03*
X164300Y104500D03*
X172700D03*
G54D37*
G01X106000Y214500D02*
Y222000D01*
X102500Y225500D01*
X92200D01*
G01X99500Y103400D02*
X104000D01*
X104600Y104000D01*
X107500D01*
X112800Y98700D01*
X137400D01*
X141800Y94300D01*
Y93200D01*
X140000Y91400D01*
Y87500D01*
G01X99500Y105900D02*
X104000D01*
X104600Y105300D01*
X108100D01*
X113400Y100000D01*
X138000D01*
X143100Y94900D01*
Y93200D01*
X145000Y91300D01*
Y87500D01*
G01X105800Y199500D02*
X102000D01*
G01X105800Y204500D02*
X102000D01*
G01X112200Y199500D02*
X116500D01*
X117900Y198100D01*
Y190300D01*
G01X106000Y214500D02*
Y209700D01*
X105800Y209500D01*
G01D02*
X102000D01*
G01X125800Y190300D02*
Y198200D01*
X119500Y204500D01*
X112200D01*
G01X130000Y87500D02*
Y92600D01*
G01X125000Y87500D02*
Y92600D01*
G01X133700Y119000D02*
Y128000D01*
X133600Y128100D01*
G01X118000Y135500D02*
Y128200D01*
X117900Y128100D01*
G01X133500Y135500D02*
X128000D01*
X125800Y133300D01*
Y128100D01*
G01X133600Y190300D02*
Y183900D01*
X134500Y183000D01*
X137500D01*
G01X136000Y200300D02*
X131000D01*
G01D02*
X127800D01*
G01X190000Y136000D02*
X173000D01*
X171500Y137500D01*
X151900D01*
X149400Y135000D01*
Y128100D01*
G01X141500Y190300D02*
Y183100D01*
G01X149400Y190300D02*
Y183100D01*
G01X149000Y200300D02*
Y190700D01*
X149400Y190300D01*
G01X138700Y225500D02*
X139500D01*
X146000Y219000D01*
Y203300D01*
X149000Y200300D01*
G01X157300Y135000D02*
Y128100D01*
G01X165100Y135000D02*
Y128100D01*
G01X157300Y190300D02*
Y183100D01*
G01X157500Y200300D02*
Y190500D01*
X157300Y190300D01*
G01X165100D02*
Y183100D01*
G01X165000Y200300D02*
Y190400D01*
X165100Y190300D01*
G01X203500Y170300D02*
Y165700D01*
X202800Y165000D01*
X200000D01*
X187500Y152500D01*
Y149500D01*
G01X198500Y146700D02*
Y140000D01*
X194500Y136000D01*
X191000D01*
G01D02*
X190000D01*
G01X191000D02*
X190700Y136300D01*
X190500D01*
G01D02*
X190300D01*
X190000Y136000D01*
G01X190500Y136300D02*
Y152100D01*
X201800Y163400D01*
X279000D01*
X283400Y159000D01*
X287200D01*
G01X193500Y146700D02*
Y151500D01*
X196000Y154000D01*
G01D02*
X203800Y161800D01*
X278700D01*
X283500Y157000D01*
X287200D01*
G01X187000Y186500D02*
X190800Y190300D01*
X213700D01*
X236000Y168000D01*
X280400D01*
X283500Y164900D01*
X287200D01*
G01X196000Y186500D02*
X212100D01*
X233800Y164800D01*
X279300D01*
X283100Y161000D01*
X287200D01*
G01X191500Y186500D02*
X193500Y188500D01*
X212500D01*
X234500Y166500D01*
X279600D01*
X283100Y163000D01*
X287200D01*
G01X182500Y186500D02*
X188000Y192000D01*
X214500D01*
X237000Y169500D01*
X281000D01*
X283600Y166900D01*
X287200D01*
G01X269500Y116500D02*
X221000D01*
X212000Y107500D01*
X203500D01*
X201500Y105500D01*
Y94400D01*
X200400Y93300D01*
X197000D01*
G01X258500Y119000D02*
X220100D01*
X210600Y109500D01*
X203000D01*
X198500Y105000D01*
G01X208500Y170300D02*
Y181500D01*
G01X248500Y172000D02*
X239000D01*
X202500Y208500D01*
Y219500D01*
X197500Y224500D01*
G01X251500Y174500D02*
X239500D01*
X205400Y208600D01*
Y224500D01*
G01X272200Y175500D02*
Y180500D01*
G01Y175500D02*
X276700Y171000D01*
X281600D01*
X283700Y168900D01*
X287200D01*
G54D28*
X279600Y108500D03*
X273400D03*
G54D19*
X180000Y90400D03*
Y102600D03*
X217500Y89900D03*
Y102100D03*
G54D29*
X263400Y202500D03*
X273600D03*
M02*
